<svg xmlns="http://www.w3.org/2000/svg" xmlns:xlink="http://www.w3.org/1999/xlink" viewBox="0 0 512 512"><defs><style>.cls-1,.cls-53{fill:none;}.cls-2{isolation:isolate;}.cls-3{fill:#dedfdd;}.cls-4{fill:#c8c9c7;}.cls-5,.cls-52,.cls-8{fill:#fff;}.cls-6{fill:#62b5e5;}.cls-7{opacity:0.7;}.cls-8{opacity:0.5;}.cls-9{fill:#f4f5f3;}.cls-10{fill:#efefef;}.cls-11{fill:#dbdbdb;}.cls-12{fill:#c6c6c6;}.cls-13{fill:#9fa1a1;}.cls-14{fill:#b4b4b4;}.cls-15{fill:#636466;}.cls-16{fill:#f1f9ff;}.cls-17{fill:#00966c;}.cls-18,.cls-25{fill:#2d2926;}.cls-19{fill:#fcd672;}.cls-20{fill:#ab2328;}.cls-21{fill:#3f3d3b;}.cls-22{fill:#df9877;}.cls-23{fill:#c6876a;}.cls-24{fill:#a06137;}.cls-25{opacity:0.4;}.cls-26{fill:#d3d4d5;}.cls-27{fill:url(#linear-gradient);}.cls-28{fill:#d3d3d3;mix-blend-mode:multiply;}.cls-29{fill:#1d1d1b;opacity:0.06;}.cls-30{fill:#cb8962;}.cls-31{fill:#515151;}.cls-32{fill:#75787b;}.cls-33{fill:#4d555e;}.cls-34{fill:#ceae4e;}.cls-35{fill:#efa77d;}.cls-36{fill:#ececec;}.cls-37{opacity:0.05;}.cls-38{fill:#041016;}.cls-39{fill:#040f15;}.cls-40{fill:#868686;}.cls-41{fill:gray;}.cls-42{clip-path:url(#clip-path);}.cls-43{fill:#c9c9c9;}.cls-44{clip-path:url(#clip-path-2);}.cls-45{fill:#6e6e6e;}.cls-46{fill:#474747;}.cls-47{fill:#e7e7e7;}.cls-48{fill:#1a79a5;}.cls-49{fill:#956344;}.cls-50{clip-path:url(#clip-path-3);}.cls-51{clip-path:url(#clip-path-4);}.cls-52{opacity:0.3;}.cls-53{stroke:#ab2328;stroke-miterlimit:10;stroke-width:4px;}</style><linearGradient id="linear-gradient" x1="-738.85" y1="306.17" x2="-696.26" y2="327.56" gradientTransform="matrix(-0.93, 0.37, 0.37, 0.93, -560.64, 81.63)" gradientUnits="userSpaceOnUse"><stop offset="0.05" stop-color="#e09678"/><stop offset="1" stop-color="#d68868"/></linearGradient><clipPath id="clip-path"><path class="cls-1" d="M178.2,255.07l.12-.12a.49.49,0,0,0,0,.64l-.13.11A.47.47,0,0,1,178.2,255.07Z"/></clipPath><clipPath id="clip-path-2"><path class="cls-1" d="M182.39,261.14l-.13.11a.55.55,0,0,1-.69-.24l.13-.11A.55.55,0,0,0,182.39,261.14Z"/></clipPath><clipPath id="clip-path-3"><path class="cls-1" d="M267.23,265.66l.13-.11a.47.47,0,0,0,0,.63l-.13.11A.48.48,0,0,1,267.23,265.66Z"/></clipPath><clipPath id="clip-path-4"><path class="cls-1" d="M271.42,271.73l-.13.11a.55.55,0,0,1-.69-.23l.13-.12A.54.54,0,0,0,271.42,271.73Z"/></clipPath></defs><g class="cls-2"><g id="art"><path class="cls-3" d="M507.82,301.92c4.81,2.77,4.83,7.27.06,10L279,445.35c-4.77,2.78-12.53,2.78-17.34,0L4.22,299.7c-4.8-2.77-4.82-7.27,0-10L233,156.27c4.78-2.77,12.54-2.77,17.34,0Z"/><path class="cls-4" d="M511.43,261.79c0,.06,0,.12,0,.18s0,.11,0,.16l0,.19,0,.16c0,.06,0,.12,0,.18a1,1,0,0,1-.05.16,1.21,1.21,0,0,1-.05.18l-.06.16a1.42,1.42,0,0,0-.08.18,1.11,1.11,0,0,0-.07.16,1.62,1.62,0,0,0-.1.18l-.08.15-.14.22-.08.13-.18.24-.07.1-.32.37-.09.09a3.7,3.7,0,0,1-.28.28l-.13.12-.18.16-.17.14-.19.15-.18.14-.21.14-.2.14-.22.14-.28.17L279,400c-.26.15-.54.3-.82.43l-.23.11c-.25.12-.52.23-.78.33l-.11.05c-.29.11-.58.2-.88.3l-.63.18-.48.13-.68.14-.5.1-.2,0-.85.12-.25,0-.49,0-.83.05-.53,0h-1.24l-.62,0-.57,0-.61-.07-.55-.08-.64-.11-.51-.11c-.26-.05-.51-.12-.76-.18l-.49-.13-.26-.08-.74-.26-.22-.08c-.22-.08-.44-.18-.65-.27l-.32-.14c-.31-.15-.61-.3-.9-.47L4.22,254.3a8.76,8.76,0,0,1-2.47-2.05,6.86,6.86,0,0,1-.46-.64,4.62,4.62,0,0,1-.33-.67,4.08,4.08,0,0,1-.35-1.7l0,5c0,1.83,1.2,3.66,3.62,5.06L261.66,405c.29.16.59.32.9.47l.31.13.56.25.09,0,.22.08.74.25.26.08.17.06.32.08c.25.06.5.13.76.18l.2.05.31.05c.21.05.43.08.65.12l.26,0a2.58,2.58,0,0,0,.29,0l.61.07.29,0h.27l.63,0,.31,0h1.45l.83,0c.11,0,.22,0,.33,0l.16,0,.25,0,.85-.12.21,0h.1l.39-.09.68-.14.48-.13.63-.18.14,0c.25-.08.5-.17.74-.27l.11,0c.27-.1.53-.22.78-.33l.23-.11c.28-.14.56-.28.83-.43L507.83,271.59l.15-.09.13-.09.23-.14.19-.13.21-.14.18-.14.19-.15.17-.14.18-.16.07-.06.06-.06.28-.28.09-.09.32-.37v0l.07-.09c.06-.08.12-.15.17-.23l.09-.14.13-.21,0-.06,0-.09a1.62,1.62,0,0,0,.1-.18c0-.06.05-.11.07-.16s.05-.12.08-.19l0-.08,0-.07.06-.18c0-.05,0-.11,0-.16a1.21,1.21,0,0,0,.05-.18.36.36,0,0,0,0-.1.13.13,0,0,0,0-.06l0-.19a.88.88,0,0,0,0-.16,1.09,1.09,0,0,0,0-.18.45.45,0,0,0,0-.11v-.11l.05-5A1.62,1.62,0,0,1,511.43,261.79Z"/><path class="cls-5" d="M507.8,256.52c4.8,2.77,4.83,7.27.05,10L279,400c-4.77,2.77-12.54,2.77-17.34,0L4.2,254.3c-4.8-2.77-4.83-7.27,0-10.05L233,110.87c4.77-2.78,12.54-2.78,17.34,0Z"/><polygon class="cls-4" points="386.64 140.48 386.64 69.77 460.93 112.66 460.93 183.37 386.64 140.48"/><polygon class="cls-6" points="389.94 138.95 389.94 75.46 422 93.98 422 157.46 389.94 138.95"/><g class="cls-7"><polygon class="cls-8" points="389.94 115.27 389.94 75.46 422 93.98 422 133.78 389.94 115.27"/></g><path class="cls-9" d="M213.72,281.25c14.44,8.34,14.52,21.86.17,30.2s-37.7,8.34-52.14,0-14.53-21.87-.17-30.21S199.27,272.9,213.72,281.25Z"/><path class="cls-9" d="M304.16,218.84c14.44,8.34,14.52,21.86.17,30.2s-37.7,8.35-52.14,0-14.52-21.87-.17-30.21S289.71,210.5,304.16,218.84Z"/><path class="cls-9" d="M306,288c14.45,8.34,14.53,21.86.17,30.2s-37.69,8.34-52.14,0-14.52-21.86-.17-30.2S291.54,279.67,306,288Z"/><path class="cls-9" d="M395.35,229.14c14.44,8.34,14.52,21.86.17,30.2s-37.7,8.34-52.14,0-14.53-21.86-.17-30.2S380.9,220.8,395.35,229.14Z"/><g class="cls-2"><polygon class="cls-10" points="238.91 134.76 293.81 166.66 148.15 250.92 93.25 219.02 238.91 134.76"/><polygon class="cls-11" points="293.81 166.66 293.83 177.37 148.18 261.63 148.15 250.92 293.81 166.66"/><polygon class="cls-12" points="148.45 250.99 148.48 261.69 93.58 229.79 93.55 219.08 148.45 250.99"/></g><g class="cls-2"><polygon class="cls-4" points="206.96 165.83 208.58 164.89 218.51 169.42 216.89 170.36 206.96 165.83"/><polygon class="cls-4" points="219 171.57 220.61 170.63 230.54 177.57 228.92 178.51 219 171.57"/><polygon class="cls-4" points="228.92 178.51 230.54 177.57 230.53 178.98 228.92 179.92 228.92 178.51"/><polygon class="cls-13" points="219.15 113.73 219 171.57 228.92 178.51 228.92 179.92 206.96 167.24 206.96 165.83 216.89 170.36 217.05 112.51 219.15 113.73"/><polygon class="cls-4" points="219.15 113.73 220.76 112.79 220.61 170.63 219 171.57 219.15 113.73"/><polygon class="cls-14" points="217.05 112.51 218.66 111.58 220.76 112.79 219.15 113.73 217.05 112.51"/></g><path class="cls-13" d="M144.67,186.17l-.17-60L217.12,84.2,219,85l-1.67,59.25L146.5,187Z"/><path class="cls-15" d="M145.89,186.54a1.49,1.49,0,0,1-.2.15v2.8L219.13,147v-3.22C218.29,144.24,146.62,185.9,145.89,186.54Z"/><path class="cls-16" d="M147.59,127.65,217.7,87.17l.16,57.13-70.11,40.48Z"/><path class="cls-4" d="M146.5,187l-.17-60L219,85l.17,60Zm2.35-58.59L149,182.6l67.59-39-.15-54.23Z"/><g class="cls-2"><polygon class="cls-4" points="132.6 209.03 134.22 208.09 144.15 212.62 142.53 213.56 132.6 209.03"/><polygon class="cls-4" points="144.63 214.77 146.25 213.83 156.18 220.77 154.56 221.71 144.63 214.77"/><polygon class="cls-4" points="154.56 221.71 156.18 220.77 156.17 222.18 154.56 223.12 154.56 221.71"/><polygon class="cls-13" points="144.79 156.93 144.63 214.77 154.56 221.71 154.56 223.12 132.59 210.44 132.6 209.03 142.53 213.56 142.69 155.71 144.79 156.93"/><polygon class="cls-4" points="144.79 156.93 146.4 155.99 146.25 213.83 144.63 214.77 144.79 156.93"/><polygon class="cls-14" points="142.69 155.71 144.3 154.77 146.4 155.99 144.79 156.93 142.69 155.71"/></g><polygon class="cls-17" points="165.39 146.99 165.43 160.63 162.53 162.3 162.49 148.66 165.39 146.99"/><polygon class="cls-18" points="171.47 135.64 171.53 157.1 168.63 158.78 168.57 137.32 171.47 135.64"/><polygon class="cls-4" points="183.74 152.53 183.74 154.04 156.44 169.8 156.44 168.29 183.74 152.53"/><polygon class="cls-4" points="176.2 159.82 176.2 161.33 156.45 172.73 156.45 171.22 176.2 159.82"/><polygon class="cls-19" points="159.31 155.67 159.33 164.15 156.43 165.82 156.41 157.35 159.31 155.67"/><polygon class="cls-6" points="177.58 136.58 177.63 153.58 174.73 155.26 174.68 138.25 177.58 136.58"/><polygon class="cls-20" points="183.66 124.66 183.73 150.06 180.83 151.74 180.76 126.33 183.66 124.66"/><g class="cls-2"><polygon class="cls-4" points="209.07 99.22 209.08 103.85 156.34 134.3 156.33 129.67 209.07 99.22"/></g><path class="cls-4" d="M207.48,122.11c.12-.07.22,0,.22.12V124l0,9.19v.65a.46.46,0,0,1-.21.36c-.12.07-.21,0-.21-.12v-.64l0-8.54v-2.39A.49.49,0,0,1,207.48,122.11Z"/><path class="cls-4" d="M209,132.44v3.06l-5.64,3.25V135.7l4-2.3V134c0,.14.09.19.21.12a.46.46,0,0,0,.21-.36v-.65Z"/><polygon class="cls-4" points="204.69 143.37 204.7 144.88 192.74 151.78 192.73 150.28 204.69 143.37"/><polygon class="cls-4" points="208.97 137.96 208.97 139.47 192.73 148.85 192.72 147.34 208.97 137.96"/><path class="cls-4" d="M199.92,130.52l.08,0c.11,0,.16.1.12.25l-.51,1.69L197.67,139l-.27.9a.48.48,0,0,1-.2.26.19.19,0,0,1-.08,0c-.11,0-.16-.11-.11-.26l.2-.66,2-6.65.53-1.79A.52.52,0,0,1,199.92,130.52Z"/><path class="cls-4" d="M198.34,138.57v3.05l-5.63,3.25v-3.05l4.5-2.59-.2.66c0,.15,0,.27.11.26a.19.19,0,0,0,.08,0,.48.48,0,0,0,.2-.26l.27-.9Z"/><path class="cls-6" d="M206.62,112.63a4.1,4.1,0,0,1,1.68,1.65l0,.06.11.21.07.13.06.15.09.22a.64.64,0,0,1,0,.07,8.09,8.09,0,0,1,.44,2.75,13.24,13.24,0,0,1-.42,3.25.29.29,0,0,0,0,.09c0,.11-.06.22-.1.33a1.6,1.6,0,0,1-.05.21c0,.07-.05.14-.07.22s-.07.21-.1.32a.42.42,0,0,0,0,.1,16,16,0,0,1-.62,1.57v-1.73c0-.13-.1-.19-.22-.12a.49.49,0,0,0-.21.36v2.38a19.52,19.52,0,0,1-2.64,3.92l-.07.07c-.07.09-.15.17-.23.26l-.15.16-.15.16-.24.24-.07.07-.08.08a13.58,13.58,0,0,1-2.2,1.72l-.33.2-.09.05-.09.05v-2.67l.18-.1a9.1,9.1,0,0,0,1.85-1.43l0,0a1.37,1.37,0,0,0,.17-.17.57.57,0,0,0,.11-.11l.11-.11.16-.19.05,0a13.9,13.9,0,0,0,1.53-2.14,12.61,12.61,0,0,0,1.08-2.39l0-.07c0-.07.05-.15.07-.23a.88.88,0,0,0,.05-.15s0-.1,0-.15.05-.15.07-.23v-.07a9.36,9.36,0,0,0,.31-2.31,5.69,5.69,0,0,0-.32-1.95l0-.05-.06-.16a.3.3,0,0,1,0-.1.41.41,0,0,1-.05-.09l-.08-.15,0,0a2.92,2.92,0,0,0-1.1-1.13l-.13-.07Z"/><path class="cls-20" d="M206.51,112.57l.11.06L205,115.47l-.21-.09-.22-.08-.18,0h-.05l-.23,0-.24,0h-.79l-.08,0h0a5.61,5.61,0,0,0-1.86.71l-.18.11v-2.68l.05,0,.06,0,.09,0,.24-.14.05,0,.34-.18,0,0,.35-.16h0l.35-.14h0l.36-.13.38-.11a5.94,5.94,0,0,1,1.07-.17H205l.16,0h.16l.2,0,.11,0,.22,0,.09,0,.22.08.09,0,.21.09Z"/><path class="cls-17" d="M200.93,129.16l-.31.16-.26.12-.28.11-.27.09-.27.07-.29.06h-.05l-.2,0h-.4a3,3,0,0,1-1.53-.37l-.13-.08-.19-.13a2914428079947.33,2914428079947.33,0,0,0-.34-.32l-.13-.15,0,0-.15-.2-.05-.08a.56.56,0,0,1-.05-.08l0-.06,0,0s0-.06-.08-.16l-.05-.1,0-.11,0-.05s0,0,0,0l0-.06s0,0,0-.06,0-.08-.05-.13l0-.13a.65.65,0,0,1,0-.13.57.57,0,0,0,0-.14l0-.14c0-.05,0-.11,0-.16l0-.13a1.1,1.1,0,0,0,0-.18s0-.08,0-.13,0-.13,0-.2a.37.37,0,0,0,0-.11v-.67s0-.08,0-.12,0-.14,0-.22,0-.1,0-.14a1.49,1.49,0,0,1,0-.21,1,1,0,0,1,0-.16l0-.18,0-.17,0-.18a1.16,1.16,0,0,1,0-.18l0-.17c0-.07,0-.13.05-.19s0-.06,0-.1l0-.07,0-.1,0-.08,0-.06a.9.9,0,0,1,0-.12l0-.12c0-.06,0-.13.1-.3a.08.08,0,0,1,0,0l.06-.19.07-.18a1.34,1.34,0,0,1,.07-.18c0-.06,0-.12.07-.19a.87.87,0,0,0,.07-.17l.09-.19c0-.06.05-.11.07-.17a2,2,0,0,0,.1-.21l.08-.15.12-.24a1.05,1.05,0,0,1,.07-.11l.19-.36.21-.35.08-.12.14-.22.1-.14a1.27,1.27,0,0,1,.13-.19c0-.06.07-.1.1-.15a1.09,1.09,0,0,1,.13-.17l.11-.15.12-.16.13-.15.12-.15.13-.15.11-.13.16-.18h0l.06-.07.1-.09a1.14,1.14,0,0,1,.11-.11,1.94,1.94,0,0,1,.16-.16l.06,0,.1-.11.08-.07.3-.26.24-.19.31-.23.28-.2.25-.16v-2.68l-.14.09-.14.09-.06,0-.34.23,0,0-.06,0c-.07,0-.15.1-.27.2l-.06,0-.24.19-.07.06-.07.06-.22.18-.12.1,0,0-.18.16-.21.19-.05.05-.11.1-.16.17-.07.07a.23.23,0,0,0-.07.07l-.09.09a13.29,13.29,0,0,0-.92,1q-.16.19-.33.42c-.11.13-.21.27-.33.43s-.19.27-.31.44-.19.28-.3.46l-.26.41,0,0-.24.41,0,.07-.21.39-.05.09c-.07.13-.14.26-.2.39a.47.47,0,0,0-.05.1l-.18.38-.06.12-.16.36-.06.14c-.05.12-.1.23-.14.35a.94.94,0,0,0-.06.15c0,.12-.09.23-.13.34l-.06.17c0,.11-.08.22-.11.33s0,.12-.07.18l0,.15,0,.06,0,.06s0,0,0,.08a2,2,0,0,0-.07.22v.06l0,.06c0,.05,0,.1-.05.21l0,.08a1,1,0,0,1,0,.12l0,.09a.85.85,0,0,1,0,.17,3.2,3.2,0,0,1-.07.33l0,.16-.06.34a.59.59,0,0,1,0,.13c0,.12,0,.24-.05.35s0,.08,0,.12,0,.24,0,.36,0,.07,0,.1,0,.25,0,.37a.28.28,0,0,0,0,.09c0,.12,0,.24,0,.37v.07c0,.12,0,.25,0,.37v.06c0,.13,0,.25,0,.42s0,.25,0,.41,0,.25.06.4.05.25.08.38.06.25.1.37a5.81,5.81,0,0,0,.38,1,.14.14,0,0,1,0,.06l.13.22.07.12,0,0,.06.1.09.13,0,0,.08.1.06.08,0,0,0,0,0,.05.14.15.07.07.14.13,0,0,.05,0,.11.09.09.07.05,0,.18.12,0,0,0,0,.24.13h0a2,2,0,0,0,.29.13l.29.1.31.08.32.06a3.11,3.11,0,0,0,.33,0,3.64,3.64,0,0,0,.66,0h.06l.31,0h.12l.22,0,.12,0,.23-.06.18,0,.1,0,.53-1.79a.52.52,0,0,1,.2-.27l.08,0c.11,0,.16.1.12.25l-.49,1.68.27-.1.11,0,.28-.13.1,0,.29-.13a.39.39,0,0,1,.11-.06l.15-.09Z"/><path class="cls-21" d="M244.15,107.18a65.81,65.81,0,0,1-5.89,6.81c-1.24,1.22-2.61,2.63-4.33,3.13-3.22.94-9.09.47-12.41.47-.66,0-.75-1.53-.76-1.68,0-.33.37-1.15.81-1.16,1.88-.06,4.52-1,6.36-1.31,1.41-.26,4.56-1.06,4.6-1.08s4.7-5.38,6.94-8.12c.84-1,1.92-1.78,3.32-1.34A2.77,2.77,0,0,1,244.15,107.18Z"/><path class="cls-18" d="M254.77,127.75s1,6.45,0,10.07c-.58,2-4.29,3-8.94,2.12-4.41-.85-5.86-2.76-6.25-4.08s0-8.89,0-8.89Z"/><path class="cls-18" d="M254.79,133.32l.13,5.09.1,5.09.07,5.09.07,5.09,0-.34.08.74.05.66.09,1.28.17,2.54c.1,1.69.21,3.37.3,5.06.18,3.37.35,6.74.48,10.12h0a1.78,1.78,0,0,1-3.53.39l-.94-5-.91-5-.9-5-.46-2.47-.23-1.22-.12-.59-.12-.51,0-.34-.64-5-.64-5.05-.61-5-.59-5.06a4.13,4.13,0,1,1,8.21-1C254.78,133.08,254.79,133.2,254.79,133.32Z"/><path class="cls-18" d="M247.24,133.91l-.7,5.67c-.22,1.69-.46,3.67-.73,5.79-.13,1.06-.26,2.15-.39,3.26-.06.54-.12,1.08-.17,1.63l-.07.75-.05.87-.13,1.75q-.06.87-.12,1.71c-.09,1.13-.18,2.24-.26,3.31-.18,2.14-.35,4.15-.49,5.86s-.29,3.14-.38,4.14l-.15,1.58h0a1.79,1.79,0,0,1-3.56-.07s-.13-2.29-.32-5.72c-.09-1.72-.2-3.72-.31-5.87,0-1.07-.1-2.18-.16-3.3l-.08-1.7c0-.55-.07-1.11-.1-1.67l0-.85,0-.49,0-.47c0-.61,0-1.18,0-1.76,0-1.15,0-2.27,0-3.36,0-2.17,0-4.18,0-5.91s.05-3.16.06-4.16l0-1.59a4.13,4.13,0,1,1,8.26.19Z"/><path class="cls-5" d="M241.87,102.72c-1.57.51-2.48,2.1-2.51,4.42,0,2.78-.17,11.23-.25,12.32-.19,2.6-.17,12.48-.17,12.48s10.15,4.84,15.7.37c0,0-.91-8.72-.74-10.7.25-3,1.86-10.71,2.33-14.25a3.82,3.82,0,0,0-1.36-3.48C252.83,102.22,248,100.76,241.87,102.72Z"/><path class="cls-21" d="M243.49,108.91c.08-2.45,1.19-4.53,1.47-7a4.33,4.33,0,0,1,.14-.84s-1.36.69-1.87.85l-1.36.46c-1.57.5-2.37,1.55-2.85,3.82-.88,4.14,0,12.88-.08,14-.2,2.6-.74,14.28-.74,14.28a17.67,17.67,0,0,0,4.93,1.52A190.12,190.12,0,0,1,243.49,108.91Z"/><path class="cls-21" d="M256.23,107.36a3.82,3.82,0,0,0-1.36-3.48,16.85,16.85,0,0,0-4.28-2c-.06,0-1.37-1.19-1.44-1.21a6.75,6.75,0,0,1,.19,1.85c-.37,1.67-1.74,3.37-3.07,10.8a37.8,37.8,0,0,0-.22,6.12c.06,4.8.23,11.8.6,16.6,2.37.08,7.22-.3,9.11-1.82,0,0-.52-10.44-.35-12.42C255.67,118.77,255.76,110.9,256.23,107.36Z"/><path class="cls-18" d="M247.07,122.93c1.9,2,4,2,6.6,2,.59,0,1.16,0,1.73-.11,0-1.36,0-2.48,0-3,.26-3,.35-10.88.82-14.42a4,4,0,0,0,0-1.15,1.33,1.33,0,0,1-.14.19c-1.25,1.53-2.15,2-2.92,3.84-.63,1.53.27,5.52.29,7.12s-2.34,1.62-3.81,2.1a13.56,13.56,0,0,1-3.57.85c0,.66,0,1.36,0,2.07A1.93,1.93,0,0,1,247.07,122.93Z"/><path class="cls-22" d="M245.65,98.55l-.7,3.26a2,2,0,0,0,1.89,2.13,2.51,2.51,0,0,0,2.5-2l-.47-3.15Z"/><path class="cls-23" d="M248.85,101c.08-.18.19-.33.27-.51l-.25-1.72-3.22-.19-.58,2.7C245.78,102.09,248.37,102.09,248.85,101Z"/><path class="cls-22" d="M243.24,97.94a3,3,0,0,0,3,3.38c1.3-.1,4-1,4.1-3.17l.68-4-7.49-1.79Z"/><path class="cls-24" d="M244.65,90.14c-3.4,1.87-1.14,3.09-1.14,3.09s5.31.44,5.3,1.33c0,.27-.37,1.83-.37,1.83l.6.5.49-.79-.28,4.07a6.52,6.52,0,0,0,2.45-3.78c.25-1,1-3.2.23-4.35C250.28,89.68,247.75,88.44,244.65,90.14Z"/><path class="cls-22" d="M249.25,96.55l-.07,1.61c.7.37,1.46-.73,1.4-1.63,0-.7-.55-.71-.91-.48A1.34,1.34,0,0,0,249.25,96.55Z"/><path class="cls-21" d="M240.85,169.81c-.63.38-2.62,2.36-3.47,3s-1.57,1.09-1.74,1.54c-.26.72.09.85.79,1.09a4.12,4.12,0,0,0,3.06-.6,8.28,8.28,0,0,1,2.34-1.17s1-.26,1.31-.39a1.25,1.25,0,0,0,.68-1.17s0-1.73-.55-2.22A2.45,2.45,0,0,0,240.85,169.81Z"/><path class="cls-21" d="M253.05,172.74s-1.64,2.4-2.3,3.09c-1.87,2-1.9,1.72-1.92,2.23,0,.73.86,1.13,1.51,1.22a3,3,0,0,0,2.28-.7L255.7,176a1.34,1.34,0,0,0,.67-1.14,4.67,4.67,0,0,0-.57-2.25C254.62,171.24,253.05,172.74,253.05,172.74Z"/><path class="cls-25" d="M242.84,104.4V104a1.15,1.15,0,0,1,0-.19,1.42,1.42,0,0,1,0-.2l.34-1.63c-.19.52-.35,1-.51,1.59a1.17,1.17,0,0,0-.05.2,1.7,1.7,0,0,0,0,.22c0,.14,0,.28,0,.42s0,.5,0,.75l-1.63,1-.1.06v.12l.19,1.66.2,1.67.22,1.66.22,1.66c.16,1.11.32,2.22.49,3.32l.27,1.66c.1.55.19,1.1.3,1.65,0-.56-.09-1.11-.14-1.67s-.1-1.12-.15-1.67c-.11-1.12-.23-2.23-.36-3.34l-.2-1.66-.21-1.67-.23-1.66-.22-1.55,1.57-1,.08,0v-.08C242.88,105,242.85,104.67,242.84,104.4Z"/><path class="cls-25" d="M250.76,101.81a6.18,6.18,0,0,1,.34,1.26,3.67,3.67,0,0,1,.05.66,1.88,1.88,0,0,1,0,.34,2.05,2.05,0,0,1-.07.34v-.1l.93,1.78,0,.08-.05.09c-.28.47-.56,1-.82,1.45s-.52,1-.77,1.49-.48,1-.71,1.51c-.12.26-.22.52-.33.77l-.32.77-.31.78-.28.79c-.1.26-.18.53-.27.79s-.18.53-.25.8l-.24.8-.21.81c-.07.28-.13.55-.18.82s-.12.55-.17.83c0-.28,0-.56.08-.84a8,8,0,0,1,.11-.84c.05-.27.08-.56.14-.83l.19-.83c.05-.27.14-.54.21-.81s.15-.55.24-.82l.26-.8.29-.8c.09-.26.21-.52.31-.78s.22-.53.33-.78.23-.52.35-.77L250,109c.26-.51.52-1,.8-1.49s.57-1,.89-1.45v.17c-.29-.6-.56-1.21-.84-1.82l0,0,0,0a3,3,0,0,0,.13-1.24A8,8,0,0,0,250.76,101.81Z"/><polygon class="cls-26" points="242.47 119.69 240.2 116.93 240.37 116.5 244.53 116.27 247.14 120.08 243.78 121.33 242.47 119.69"/><path class="cls-21" d="M258.56,112c-.55-1.6-1.14-3.18-1.74-4.75a9.07,9.07,0,0,0-.76-1.6,6,6,0,0,0-2.54,3A1.87,1.87,0,0,1,252,110c1.17,3.08,2.42,6.13,3.49,9.25-1.36.28-2.73.42-4.1.58a9,9,0,0,0-2.92.44,1.63,1.63,0,0,0-.24,2.72c.75.58,2.11.53,3,.63,2.59.28,9.45,1.08,9.65-2.83,0-.1,0-.2,0-.3C260.8,117.64,259.47,114.62,258.56,112Z"/><path class="cls-22" d="M248.6,120.88a5.61,5.61,0,0,0-1.66-2.16c-.36-.28-1.6-1.36-1.6-1.36s-.93.37-.05,1.13.93,1.2.56,1.47-2.4-.21-3.36-.42c-.18,0-.55-.89-1.29-1.36-.45-.29-.72.09-.65.26s1.1,1.64,1.1,1.64a11.48,11.48,0,0,0,1.85,2.39c.48.19,4.18.52,4.7.17S248.66,121.47,248.6,120.88Z"/><path class="cls-27" d="M215.32,116.85h-1.21l-.55,0h-.21a.32.32,0,0,1-.3-.31.33.33,0,0,1,.31-.33h.75l.76,0,.42,0h.53v0h-2.71a.31.31,0,0,1-.31-.31.32.32,0,0,1,.3-.33h.21l.53,0h2l0-.12h-.23l-.8,0h-.36l-.33,0-.48,0h-.19a.32.32,0,0,1,0-.64h2.9l.25,0c.59-.23,1.27-.21,1.32-.34.19-.51-.26-.86-.8-1.33s-.25-.74-.13-.79a10.27,10.27,0,0,1,1.69,1,8.06,8.06,0,0,1,1.4,1.11c.13.18.64.82.64.82l.65.09a2.64,2.64,0,0,1,.15,1.16c0,1-.31,1.1-.31,1.1l-1.08.06a6.83,6.83,0,0,1-2.14.44,20.37,20.37,0,0,1-4.08-.23c-.07,0-.4,0-.42-.29a.18.18,0,0,1,.19-.23c.41,0,1.87.14,2.13-.24h-.08Z"/><path class="cls-28" d="M245.1,105.5a5.32,5.32,0,0,1-.67-2,6.35,6.35,0,0,1,.25-1.83l.24-.2A2.6,2.6,0,0,0,246,104Z"/><path class="cls-28" d="M249.1,100.59a4,4,0,0,1-3.17,3.31l.89,1.68s2.44-1.23,2.72-3A2.47,2.47,0,0,0,249.1,100.59Z"/><path class="cls-5" d="M245.1,105.2a5.25,5.25,0,0,1-.67-2,6.35,6.35,0,0,1,.25-1.83l.42-.21a2.37,2.37,0,0,0,.94,2.6Z"/><path class="cls-5" d="M249.1,100.29a3.91,3.91,0,0,1-3.06,3.43l.78,1.57s2.44-1.24,2.72-3A2.47,2.47,0,0,0,249.1,100.29Z"/><polygon class="cls-29" points="176.26 302.59 192.14 311.76 210.72 301.77 193.29 292.15 176.26 302.59"/><polygon class="cls-29" points="221.18 272.39 237.06 281.56 255.63 271.58 238.2 261.96 221.18 272.39"/><polygon class="cls-29" points="265.28 242.64 281.17 251.81 299.74 241.83 282.31 232.21 265.28 242.64"/><polygon class="cls-29" points="310.4 212.94 326.28 222.11 344.86 212.12 327.43 202.5 310.4 212.94"/><polygon class="cls-30" points="187.86 295.61 187.99 285.54 182.9 283.72 185.03 294.36 187.86 295.61"/><path class="cls-30" d="M187.87,294.51s.13,2.49.12,3.1-.78,1.62-2.71.89c-.91-.34-1.5-2-3.14-2.84-2-1-2.17-1.73-2-2.34s1.55-.85,2.55-.49c1.49.55,1.88,1.06,2.38,1.07S187.87,294.51,187.87,294.51Z"/><path class="cls-31" d="M180.09,293.32c.06-.3.34-.75,1.59-.75a5.85,5.85,0,0,1,2.15.79c-.69-.09-1.6.14-1.61.71,0,0,.92.85,1.42,1.31a8.87,8.87,0,0,0,2.22,1.43,1.88,1.88,0,0,0,2.1-.34c0,.33,0,1,0,1.14,0,.73-.78,1.62-2.71.89-.91-.34-1.77-2.11-3.14-2.84C180.17,294.62,180,293.93,180.09,293.32Z"/><path class="cls-30" d="M178.72,297.41s.32,2.66.29,3.12c0,.72-.77,1.37-2.22,1.17-1-.13-2.64-1.41-3.11-1.67s-3.3-1.71-3.38-2.42,1.06-1.4,2.11-1.24,3.4.92,3.8.71A8.16,8.16,0,0,1,178.72,297.41Z"/><path class="cls-31" d="M172.41,296.37l1.62.36c-1,.09-1.13.86-1,1,.7.95,2.73,1.75,4.19,2a1.8,1.8,0,0,0,1.77-.49c0,.37.06,1.15,0,1.27,0,.72-.77,1.37-2.22,1.17-1-.13-2.64-1.41-3.11-1.67s-3.3-1.71-3.38-2.42S171.36,296.21,172.41,296.37Z"/><path class="cls-30" d="M179.09,278.94c.15,4.31.68,2.09.52,6.4-.06,1.57-.63,7.59-.94,12.93-.11,2.1-2.75,1-2.83-.94-.11-3.2-.8-8.63-1.28-12.57-.18-1.49-.89-4.84-.35-6.39C175.09,275.82,179,276.05,179.09,278.94Z"/><path class="cls-26" d="M325.15,203l-13.34-8.81a1.26,1.26,0,0,0-1.26-.13l-.72.42h0a1.29,1.29,0,0,0-.52,1.14l0,16.77a1.07,1.07,0,0,0,.48.84.33.33,0,0,0,.38,0l0,0,.72-.42a.36.36,0,0,0,.15-.31l0-16.77s0-.05,0-.08l.07,0,13.32,8.79a1.71,1.71,0,0,1,.56.6,1.58,1.58,0,0,1,.24.79l-.05,15.66a1.1,1.1,0,0,0,.48.84.33.33,0,0,0,.38,0l0,0,.72-.42a.35.35,0,0,0,.14-.31l0-15.66A3.9,3.9,0,0,0,325.15,203Z"/><path class="cls-26" d="M343,193.38l-13.32-8.8a1.25,1.25,0,0,0-1.26-.12l-.72.42h0a1.25,1.25,0,0,0-.52,1.14l-.05,16.77a1.07,1.07,0,0,0,.48.84.31.31,0,0,0,.38,0l0,0,.73-.42a.34.34,0,0,0,.14-.31l0-16.77s0-.05,0-.08l.05,0,13.34,8.82a1.52,1.52,0,0,1,.56.59,1.64,1.64,0,0,1,.24.79L343,212a1.1,1.1,0,0,0,.48.84.31.31,0,0,0,.38,0l0,0,.72-.42a.34.34,0,0,0,.14-.31l0-15.66A3.89,3.89,0,0,0,343,193.38Z"/><g class="cls-2"><polygon class="cls-32" points="309.71 194.24 326.61 184.42 326.61 184.42 309.71 194.24 309.71 194.24"/><path class="cls-32" d="M328.19,183l-.08,0a2.5,2.5,0,0,0-2.51-.24l-16.9,9.82a1.49,1.49,0,0,1,.78-.14,4.18,4.18,0,0,1,.79.11,7,7,0,0,1,.94.27l.08,0,14.77,9.58,15.86-10.49Z"/><path class="cls-20" d="M331.65,188.56c2.77,1.61,2.76,4.21,0,5.82a11.06,11.06,0,0,1-10.05,0c-2.77-1.61-2.75-4.21,0-5.82A11.06,11.06,0,0,1,331.65,188.56ZM324.08,194l6.9-4L329.14,189l-6.89,4,1.83,1.06"/><polygon class="cls-5" points="322.25 192.93 324.08 193.99 330.98 190.01 329.14 188.95 322.25 192.93"/><path class="cls-32" d="M349.48,168.6a1.44,1.44,0,0,0-.55-.63.56.56,0,0,0-.44-.08l-.22.11-16.9,9.82a.76.76,0,0,1,.22-.1.52.52,0,0,1,.44.07,1.5,1.5,0,0,1,.55.63.89.89,0,0,1,0,1l-.24.14a1.6,1.6,0,0,0-.35.3,3.28,3.28,0,0,0-.76,1.72l-2.13,17.74-.14,1.21-.06.5a5.14,5.14,0,0,1-.33,1.38,2.45,2.45,0,0,1-.84,1.13l-.11.07,16.9-9.82.11-.07a2.45,2.45,0,0,0,.84-1.13,5.14,5.14,0,0,0,.33-1.38l2.33-19.45a3.29,3.29,0,0,1,.76-1.73,1.44,1.44,0,0,1,.24-.21l.29-.17C349.68,169.5,349.71,169.05,349.48,168.6Z"/><path class="cls-13" d="M332.58,178.42c.24.49.19,1-.11,1.08l-.12.06a1.6,1.6,0,0,0-.35.3,3.28,3.28,0,0,0-.76,1.72L328.91,201a5.14,5.14,0,0,1-.33,1.38,2.45,2.45,0,0,1-.84,1.13,1.74,1.74,0,0,1-1,.31,3.33,3.33,0,0,1-1.77-.53l-13.63-8.85-.39-.12a4.93,4.93,0,0,0-.92-.16.7.7,0,0,0-.36.05.51.51,0,0,1-.51-.05,1.43,1.43,0,0,1-.5-.53c-.27-.47-.27-1,0-1.15a1.47,1.47,0,0,1,.77-.14,4.17,4.17,0,0,1,.8.11,7,7,0,0,1,.94.27l.08,0s14.36,9.21,14.6,9.24a1.17,1.17,0,0,0,.63-.08,1.61,1.61,0,0,0,.78-1,3.93,3.93,0,0,0,.2-.91l2.34-19.55a4.21,4.21,0,0,1,1-2.24,1.77,1.77,0,0,1,.75-.54.52.52,0,0,1,.44.07A1.5,1.5,0,0,1,332.58,178.42Z"/></g><path class="cls-26" d="M298.37,222.75,285.05,214a1.25,1.25,0,0,0-1.26-.12l-.72.42h0a1.22,1.22,0,0,0-.52,1.13l-.05,16.77a1.1,1.1,0,0,0,.48.84.33.33,0,0,0,.38,0l0,0,.72-.42a.34.34,0,0,0,.14-.31l.05-16.77v-.08l.06,0,13.33,8.81a1.62,1.62,0,0,1,.57.59,1.74,1.74,0,0,1,.23.79l-.05,15.66a1.08,1.08,0,0,0,.49.84.31.31,0,0,0,.37,0l0,0,.72-.42a.32.32,0,0,0,.14-.31l.05-15.66A3.92,3.92,0,0,0,298.37,222.75Z"/><path class="cls-33" d="M270.5,237.52a26.64,26.64,0,0,1-4.36.69c-1.34.06-2.75,1.42-1.39,2.08,1.75.86,7.58,1.84,7.58,1.84s1.82.41,2.63-.84a1.24,1.24,0,0,0,.16-.78l-.24-2.2Z"/><path class="cls-33" d="M280,233.49a37.51,37.51,0,0,1-4.13.49c-1.3.05-2.28,1.6-1,2l6.72,1.82s2.14.5,2.95-.77a.9.9,0,0,0,.1-.66l-.52-2.32Z"/><path class="cls-21" d="M273.31,224.33a36.46,36.46,0,0,0-3.92-6.84,34.6,34.6,0,0,0-4.57,2l5.39,18.28c.06.66.41,1.29,1.69,1.58a3.11,3.11,0,0,0,3-.65S274.62,227.15,273.31,224.33Z"/><path class="cls-21" d="M273.17,217.33l7.18,16.83c.08.88,1,1.42,1.92,1.5,1.91.18,2.33-.89,2.33-.89L280.72,219C280.53,219.05,274.8,217.44,273.17,217.33Z"/><path class="cls-26" d="M280.55,232.34l-13.35-8.82a1.23,1.23,0,0,0-1.26-.12l-.72.41h0a1.25,1.25,0,0,0-.52,1.14l0,16.77a1.1,1.1,0,0,0,.48.84.31.31,0,0,0,.38,0l0,0,.72-.42a.35.35,0,0,0,.14-.31l0-16.77V225l.08,0,13.31,8.79a1.73,1.73,0,0,1,.57.6,1.67,1.67,0,0,1,.23.79l0,15.66a1.08,1.08,0,0,0,.49.84.3.3,0,0,0,.37,0l0,0,.72-.42a.33.33,0,0,0,.14-.31l0-15.66A3.89,3.89,0,0,0,280.55,232.34Z"/><g class="cls-2"><polygon class="cls-32" points="265.11 223.61 282 213.79 282 213.79 265.1 223.61 265.11 223.61"/><path class="cls-32" d="M283.59,212.33l-.09,0a2.49,2.49,0,0,0-2.5-.24l-16.9,9.82a1.44,1.44,0,0,1,.77-.14,5.31,5.31,0,0,1,.8.11,7.09,7.09,0,0,1,.93.27l.09,0,14.76,9.58,15.87-10.49Z"/><path class="cls-21" d="M279,227.38a3.44,3.44,0,0,0,3.58.53c2.93-.88,5.53-2.78,8.24-4.14,1-.49,1.92-1,2.92-1.47l-6-7.7c-1.12-.77-8.43-3.19-10.07-3.22-3-.06-3.92.54-4.3,1.37a5.18,5.18,0,0,0-.22,2.59,29.91,29.91,0,0,0-4-1.55c-3.76,0-4.38,2.51-4.38,2.51-.58,1.19.28,5,.28,5a6.91,6.91,0,0,1,5.4.39C273.07,223.58,277.86,226.54,279,227.38Z"/><path class="cls-19" d="M297.32,194.8c-.49-4.32-3.17-5.82-4.36-6.18-1.77-.54-3.31-.19-6.53.61-1.32.33-3.09,1.71-5.14,3.19-4.55,3.31-2.84,9.11-2.64,12.68a77.49,77.49,0,0,1-.88,14.83A3.73,3.73,0,0,0,281.5,223c4,.34,12.4-2.86,12.4-2.86s.15-6.08.89-8.28C296.32,207.34,297.62,197.48,297.32,194.8Z"/><path class="cls-34" d="M282.29,197.4a36.29,36.29,0,0,0-3.86-.57c-.64,2.85.1,6,.22,8.27a68.92,68.92,0,0,1-.33,10.55,6.59,6.59,0,0,1,.34-.57C283.94,207.79,283,201.57,282.29,197.4Z"/><path class="cls-35" d="M284.74,184.91l.26,4c0,1.49,5.09.82,5.05-.67l-.33-3.45Z"/><path class="cls-36" d="M290,187.34c-.57,1.13-3.34,1.66-5,1.07l-.57,1.81c1.06,1.43,4.65.26,5.82-.66.91-.71.76-1.2.76-1.2Z"/><path class="cls-35" d="M283.56,184.34c.46,2.45,1.19,3,3.36,3.09,0,0,4.23-.29,4.32-2.53l.61-4.15L283,179.24Z"/><path class="cls-24" d="M285.67,176.29c-1.81.71-4.7,2.42-2.06,4.41,0,0,.56.54.5,2.29s1.73,3.33,3.06,4.46c1,.82,2.82-.11,2.82-.11a9.4,9.4,0,0,0,2.07-8.38C291.37,175.8,287,175.79,285.67,176.29Z"/><path class="cls-35" d="M283.94,183.11l.38,1.64c.66.4.56-.79.48-1.78C284.7,181.63,283.94,183.11,283.94,183.11Z"/><path class="cls-32" d="M304.87,198a1.5,1.5,0,0,0-.55-.63.51.51,0,0,0-.44-.07.65.65,0,0,0-.21.1l-16.9,9.82a.65.65,0,0,1,.21-.1.51.51,0,0,1,.44.07,1.5,1.5,0,0,1,.55.63.89.89,0,0,1,0,1l-.23.14a1.6,1.6,0,0,0-.36.3,3.28,3.28,0,0,0-.76,1.72l-2.13,17.74-.14,1.21-.06.5a4.77,4.77,0,0,1-.32,1.38,2.62,2.62,0,0,1-.85,1.14L283,233l16.9-9.82.11-.07a2.54,2.54,0,0,0,.85-1.13,4.77,4.77,0,0,0,.32-1.38l2.33-19.45a3.24,3.24,0,0,1,.76-1.72,1.5,1.5,0,0,1,.24-.22l.29-.17C305.07,198.87,305.1,198.42,304.87,198Z"/><path class="cls-13" d="M288,207.79c.25.49.2,1-.11,1.08l-.11.06a1.6,1.6,0,0,0-.36.3,3.28,3.28,0,0,0-.76,1.72L284.3,230.4a4.77,4.77,0,0,1-.32,1.38,2.62,2.62,0,0,1-.85,1.14,1.91,1.91,0,0,1-.95.31,3.45,3.45,0,0,1-1.77-.54l-13.63-8.85-.4-.12a5,5,0,0,0-.91-.16.73.73,0,0,0-.37.05.49.49,0,0,1-.5-.05,1.39,1.39,0,0,1-.5-.52c-.28-.48-.28-1,0-1.16a1.44,1.44,0,0,1,.77-.14,5.31,5.31,0,0,1,.8.11,7.09,7.09,0,0,1,.93.27l.09,0s14.35,9.21,14.59,9.24a1.17,1.17,0,0,0,.63-.08,1.61,1.61,0,0,0,.78-1,3.93,3.93,0,0,0,.2-.91l2.34-19.55a4.29,4.29,0,0,1,1-2.24,1.91,1.91,0,0,1,.75-.54.51.51,0,0,1,.44.07A1.5,1.5,0,0,1,288,207.79Z"/></g><path class="cls-35" d="M268,211.38a7.39,7.39,0,0,0-2.51.69c-.51.46-1.77,2.22-1.63,2.77a5.36,5.36,0,0,0,.93,1.46,3.62,3.62,0,0,1,1.13-1.46,8.86,8.86,0,0,1,2.08-1Z"/><path class="cls-19" d="M283.38,197.18l-.12,1c-.08.64-.22,1.55-.41,2.64-.11.55-.22,1.14-.34,1.77s-.29,1.28-.45,2-.36,1.39-.57,2.11-.45,1.47-.76,2.23c-.15.39-.32.78-.53,1.2a6.58,6.58,0,0,1-.37.66,5.19,5.19,0,0,1-.6.82l-.11.12-.1.09h0l0,0-.17.15a5,5,0,0,1-.46.33c-.25.15-.47.27-.68.38a9.88,9.88,0,0,1-1.19.48,18.37,18.37,0,0,1-2.11.59c-.66.13-1.29.24-1.87.31s-1.11.12-1.59.14-.89,0-1.23,0c-.68,0-1.08-.06-1.08-.06a1.64,1.64,0,0,1-.23-3.22h0l.9-.25,1-.29c.39-.12.84-.25,1.32-.41s1-.33,1.53-.53,1.09-.41,1.6-.65a5.85,5.85,0,0,0,.71-.36,1.31,1.31,0,0,0,.23-.15s.05,0,0,0l0,0h0l.05,0,0,0h0c.07-.07-.08.09-.07.07h0l0,0c-.05.05,0,0,0-.07l.13-.29c.09-.23.2-.51.29-.81.19-.59.37-1.24.54-1.89s.31-1.31.47-1.94.28-1.26.41-1.85.26-1.16.37-1.68c.23-1,.42-1.9.55-2.51l.22-.94v0a2.41,2.41,0,0,1,4.75.82Z"/><path class="cls-26" d="M235.93,262.33l-13.34-8.82a1.25,1.25,0,0,0-1.26-.12l-.72.42h0a1.22,1.22,0,0,0-.52,1.13L220,271.71a1.06,1.06,0,0,0,.49.84.31.31,0,0,0,.37,0l0,0,.72-.42a.32.32,0,0,0,.14-.31l.05-16.77V255l.08,0,13.31,8.8a1.62,1.62,0,0,1,.57.59,1.74,1.74,0,0,1,.23.79l0,15.66a1,1,0,0,0,.48.84.31.31,0,0,0,.37,0l0,0,.72-.42a.32.32,0,0,0,.14-.31l0-15.66A3.89,3.89,0,0,0,235.93,262.33Z"/><path class="cls-26" d="M253.75,252.74l-13.31-8.8a1.25,1.25,0,0,0-1.26-.12l-.72.42h0a1.22,1.22,0,0,0-.52,1.13l-.05,16.78a1.08,1.08,0,0,0,.48.83.33.33,0,0,0,.38,0l0,0,.72-.41a.33.33,0,0,0,.14-.31l0-16.77a.19.19,0,0,1,0-.08l.05,0L253,254.27a1.75,1.75,0,0,1,.8,1.38l0,15.67a1.05,1.05,0,0,0,.48.83.33.33,0,0,0,.38,0l0,0,.72-.41a.33.33,0,0,0,.14-.31l0-15.67A3.92,3.92,0,0,0,253.75,252.74Z"/><g class="cls-2"><polygon class="cls-32" points="220.49 253.6 237.39 243.78 237.38 243.78 220.48 253.6 220.49 253.6"/><path class="cls-32" d="M239,242.32l-.09,0a2.48,2.48,0,0,0-2.5-.24l-16.9,9.82a1.56,1.56,0,0,1,.77-.14,5.31,5.31,0,0,1,.8.11c.5.12.92.27.93.27l.09,0,14.76,9.59,15.87-10.49Z"/><path class="cls-20" d="M242.43,247.51c2.76,1.61,2.75,4.22,0,5.82a11.06,11.06,0,0,1-10.05,0c-2.77-1.6-2.76-4.21,0-5.82A11.06,11.06,0,0,1,242.43,247.51ZM234.86,253l6.89-4-1.83-1.07-6.9,4,1.84,1.07"/><polygon class="cls-5" points="233.02 251.88 234.86 252.95 241.75 248.97 239.92 247.9 233.02 251.88"/><path class="cls-32" d="M260.26,228a1.49,1.49,0,0,0-.56-.62.52.52,0,0,0-.44-.08,1,1,0,0,0-.21.1l-16.9,9.82.21-.1a.56.56,0,0,1,.44.08,1.49,1.49,0,0,1,.56.62.9.9,0,0,1,0,1l-.23.14a1.93,1.93,0,0,0-.36.3,3.37,3.37,0,0,0-.76,1.72l-2.12,17.74-.15,1.21-.06.51a4.93,4.93,0,0,1-.32,1.38,2.59,2.59,0,0,1-.85,1.13l-.11.07,16.9-9.82.11-.07a2.62,2.62,0,0,0,.85-1.14,4.79,4.79,0,0,0,.32-1.37l2.33-19.46a3.37,3.37,0,0,1,.76-1.72l.24-.22.29-.17C260.45,228.87,260.48,228.42,260.26,228Z"/><path class="cls-13" d="M243.36,237.78c.24.49.19,1-.11,1.08l-.12.06a1.93,1.93,0,0,0-.36.3,3.37,3.37,0,0,0-.76,1.72l-2.33,19.46a4.93,4.93,0,0,1-.32,1.38,2.59,2.59,0,0,1-.85,1.13,1.82,1.82,0,0,1-.95.31,3.35,3.35,0,0,1-1.77-.54l-13.63-8.84a3.79,3.79,0,0,0-.4-.12,3.71,3.71,0,0,0-.91-.16.79.79,0,0,0-.37,0,.49.49,0,0,1-.5,0,1.39,1.39,0,0,1-.5-.52c-.28-.48-.28-1,0-1.16a1.56,1.56,0,0,1,.77-.14,5.31,5.31,0,0,1,.8.11c.5.12.92.27.93.27l.09,0s14.35,9.21,14.59,9.24a1.07,1.07,0,0,0,.63-.07,1.64,1.64,0,0,0,.79-1,3.69,3.69,0,0,0,.19-.91l2.34-19.55a4.37,4.37,0,0,1,1-2.24,2.2,2.2,0,0,1,.75-.54.56.56,0,0,1,.44.08A1.49,1.49,0,0,1,243.36,237.78Z"/></g><path class="cls-26" d="M191.32,292.33,178,283.51a1.25,1.25,0,0,0-1.26-.12l-.72.42h0a1.23,1.23,0,0,0-.52,1.13l0,16.78a1,1,0,0,0,.48.83.3.3,0,0,0,.37,0l0,0,.72-.42a.33.33,0,0,0,.14-.31l0-16.77s0-.06,0-.08l.07,0,13.31,8.8a1.75,1.75,0,0,1,.8,1.39l0,15.66a1.05,1.05,0,0,0,.48.83.31.31,0,0,0,.38,0l0,0,.72-.42A.34.34,0,0,0,193,311l0-15.66A3.92,3.92,0,0,0,191.32,292.33Z"/><path class="cls-26" d="M209.14,282.75,195.83,274a1.23,1.23,0,0,0-1.26-.12l-.72.41h0a1.25,1.25,0,0,0-.52,1.14l0,16.77a1,1,0,0,0,.48.83.3.3,0,0,0,.37,0l0,0,.72-.42a.33.33,0,0,0,.14-.31l.05-16.77s0,0,0-.08l.05,0,13.33,8.81a1.65,1.65,0,0,1,.57.6,1.56,1.56,0,0,1,.23.79l0,15.66a1,1,0,0,0,.48.83.31.31,0,0,0,.38,0l0,0,.72-.42a.35.35,0,0,0,.14-.31l0-15.66A3.87,3.87,0,0,0,209.14,282.75Z"/><g class="cls-2"><polygon class="cls-32" points="175.88 283.61 192.78 273.78 192.77 273.79 175.87 283.61 175.88 283.61"/><path class="cls-32" d="M194.36,272.33l-.08,0a2.5,2.5,0,0,0-2.51-.24l-16.9,9.82a1.45,1.45,0,0,1,.77-.14,4.17,4.17,0,0,1,.8.11,7,7,0,0,1,.94.27l.08,0,14.76,9.58,15.87-10.49Z"/><path class="cls-4" d="M184.94,270.51a5,5,0,0,0-2.74.47c-5.31,1.84-8.37,5.32-8.54,6-.34,1.44,1.21,4,4.7,4,4.87,0,8.42,5.64,12.72,6.92,9.62,2.88,6.56-10.9,3.29-14.53Z"/><path class="cls-17" d="M205.91,256c-.1-.71,0-3.6-2.83-4.64,0,0-5.43-1.86-10.62,3.56-.81.84-1.11,1.91-1.62,4.32a30.91,30.91,0,0,1-1.59,4.28c-.38,1.21,2.05,5.17,2.05,5.17s-.16,4.77-.39,6.76c-.17,1.44-1,4.14-.56,5.38,1.38,4.22,5.87,4.77,11,3.92S205,274,205,274l-1-4.9S206,256.71,205.91,256Z"/><g class="cls-37"><path d="M193.78,257.25a1.58,1.58,0,0,1-.29.71c-1.71,2.5-1.5,5.67-3.66,8a26,26,0,0,0,1.47,2.78s-.1,3.05-.26,5.3a18.51,18.51,0,0,0,3.91-5.26C196.72,265,197.82,259.32,193.78,257.25Z"/></g><path class="cls-30" d="M196.35,248.84l.52,4.18c.08,1.51,4.25.89,4.17-.62l-.78-3.76Z"/><path class="cls-36" d="M200.73,250.88c0,1.54-2.46,1.84-4.06.59l-.81.84a3.29,3.29,0,0,0,5.13.93,1.78,1.78,0,0,0,.29-2.17Z"/><path class="cls-30" d="M194.65,248.32c.54,2.47,1.57,3.25,3.78,3.27a6.54,6.54,0,0,0,3.14-3.54l.31-.81A2.38,2.38,0,0,0,200,244l-6.08-.86Z"/><path class="cls-21" d="M196.56,240.09c-1.41.6-3.59,1.08-3.15,4,.06.43.52.31,1.14.75,0,0,.63.26.62,2.05s2.66,3.44,3.31,3.74a4.68,4.68,0,0,0,2.18-.1s3-4.8,2-7.86S197.84,239.54,196.56,240.09Z"/><path class="cls-30" d="M195,246.67l.14,1.66c1.15.78,1.09-.8.89-1.79S195,246.67,195,246.67Z"/><path class="cls-21" d="M200.83,241.41s2.38-1,3.35.53c.46.71.48,2,.22,3.67-.22,1.34-2.17,2.06-2.78.84v0C201.32,245.85,198.52,242.57,200.83,241.41Z"/><polygon class="cls-17" points="205.68 254.34 207.64 262.86 203.57 266.74 205.68 254.34"/><path class="cls-32" d="M215.65,258a1.54,1.54,0,0,0-.55-.62.59.59,0,0,0-.45-.08l-.21.11-16.9,9.82.21-.11a.59.59,0,0,1,.45.08,1.54,1.54,0,0,1,.55.62.93.93,0,0,1,0,1l-.24.14a1.49,1.49,0,0,0-.35.29,3.28,3.28,0,0,0-.77,1.72l-2.12,17.75-.15,1.2-.06.51a4.85,4.85,0,0,1-.32,1.38,2.45,2.45,0,0,1-.84,1.13l-.11.07,16.9-9.82.11-.07a2.45,2.45,0,0,0,.84-1.13,4.93,4.93,0,0,0,.32-1.38l2.33-19.46a3.28,3.28,0,0,1,.77-1.72,1.41,1.41,0,0,1,.23-.21l.3-.17C215.85,258.87,215.87,258.42,215.65,258Z"/><path class="cls-13" d="M198.75,267.78c.24.49.19,1-.11,1.08l-.12.07a1.49,1.49,0,0,0-.35.29,3.28,3.28,0,0,0-.77,1.72l-2.33,19.46a4.85,4.85,0,0,1-.32,1.38,2.45,2.45,0,0,1-.84,1.13,1.77,1.77,0,0,1-1,.31,3.42,3.42,0,0,1-1.77-.53l-13.63-8.85-.39-.12a4.23,4.23,0,0,0-.92-.16.78.78,0,0,0-.37.05.51.51,0,0,1-.5-.05,1.51,1.51,0,0,1-.5-.53c-.28-.47-.27-1,0-1.15a1.45,1.45,0,0,1,.77-.14,4.17,4.17,0,0,1,.8.11,7,7,0,0,1,.94.27l.08,0s14.36,9.2,14.6,9.24a1.13,1.13,0,0,0,.62-.08,1.59,1.59,0,0,0,.79-1,3.43,3.43,0,0,0,.19-.92L196,269.87a4.34,4.34,0,0,1,1-2.25,2.2,2.2,0,0,1,.75-.54.59.59,0,0,1,.45.08A1.54,1.54,0,0,1,198.75,267.78Z"/></g><g class="cls-2"><polygon class="cls-38" points="188.2 257.34 188.07 257.45 184.62 252.08 184.75 251.97 188.2 257.34"/><polygon class="cls-39" points="184.75 251.97 184.62 252.08 178.94 255.23 179.06 255.12 184.75 251.97"/><polygon class="cls-40" points="182.52 260.49 182.39 260.6 178.94 255.23 179.06 255.12 182.52 260.49"/><polygon class="cls-41" points="188.2 257.34 188.07 257.45 182.39 260.6 182.52 260.49 188.2 257.34"/><g class="cls-2"><g class="cls-42"><g class="cls-2"><path class="cls-38" d="M178.29,255.59l-.13.11a.47.47,0,0,1,0-.63l.12-.12a.49.49,0,0,0,0,.64"/></g></g></g><path class="cls-21" d="M184.87,251.31a.55.55,0,0,1,.69.24l3.42,5.32a.46.46,0,0,1-.1.67l-6.49,3.6a.55.55,0,0,1-.69-.24l-3.41-5.31a.46.46,0,0,1,.1-.68Zm3.33,6L184.75,252l-5.68,3.15,3.45,5.37,5.68-3.15"/><polygon class="cls-9" points="184.75 251.97 188.2 257.34 182.52 260.49 179.06 255.12 184.75 251.97"/><polygon class="cls-43" points="181.39 255.66 181.85 256.37 181.1 256.79 180.64 256.08 181.39 255.66"/><polygon class="cls-43" points="182.72 254.94 183.18 255.65 182.43 256.07 181.97 255.36 182.72 254.94"/><polygon class="cls-43" points="184.05 254.22 184.51 254.93 183.75 255.35 183.29 254.64 184.05 254.22"/><polygon class="cls-43" points="182.22 256.87 182.68 257.59 181.92 258.01 181.46 257.29 182.22 256.87"/><polygon class="cls-43" points="183.55 256.15 184.01 256.87 183.25 257.29 182.79 256.57 183.55 256.15"/><polygon class="cls-43" points="184.87 255.43 185.33 256.15 184.58 256.57 184.12 255.85 184.87 255.43"/><polygon class="cls-43" points="183.04 258.09 183.5 258.8 182.74 259.22 182.28 258.5 183.04 258.09"/><polygon class="cls-43" points="184.37 257.36 184.83 258.08 184.07 258.5 183.61 257.78 184.37 257.36"/><polygon class="cls-43" points="185.7 256.64 186.16 257.36 185.4 257.78 184.94 257.06 185.7 256.64"/><polygon class="cls-32" points="184.75 251.97 185.13 252.55 179.44 255.7 179.06 255.12 184.75 251.97"/><path class="cls-39" d="M188.88,257.54l-6.49,3.6-.13.11,6.49-3.6.06,0,.13-.11Z"/><polygon class="cls-38" points="181.7 260.9 181.57 261.01 178.16 255.7 178.29 255.59 181.7 260.9"/><g class="cls-2"><g class="cls-44"><g class="cls-2"><path class="cls-38" d="M182.39,261.14l-.13.11a.55.55,0,0,1-.69-.24l.13-.11a.55.55,0,0,0,.69.24"/></g></g></g></g><path class="cls-30" d="M180.36,262.86s-2.16-2.37-2.2-2.91a5.87,5.87,0,0,1,.92-2.8l1.39,2.16s.78-.29.38-.9c-.56-.87-.45-1.2-.18-1.37a28.31,28.31,0,0,1,1.43,2.48,2.12,2.12,0,0,1-.12,2Z"/><path class="cls-17" d="M195.26,254.24c-2.67-.71-3.32,2-3.83,3.88a51.6,51.6,0,0,1-2.49,8.19c-1.87-1.43-3.9-2.54-5.68-4.08a2.93,2.93,0,0,0-1.24-.82,1.45,1.45,0,0,0-1.68,1.54c.07.77.85,1.51,1.29,2.09.72.95,1.47,1.88,2.24,2.78,1.21,1.41,3.37,4,5.34,4.35,3.27.61,4.45-4.5,5.37-6.79a69.53,69.53,0,0,0,2.31-6.74c.5-1.73.56-3.82-1.63-4.4C193.82,253.85,196.71,254.62,195.26,254.24Z"/><path class="cls-30" d="M184.83,256.55a.43.43,0,0,0,.32.56c.75.17,2.29.34,2.29.34a.46.46,0,0,0,.16.26,2,2,0,0,0,.7.27s-.31.2-.11.46h.52a6.33,6.33,0,0,0,2-.29l.37,0c.19-.75.45-1.7.57-2l-.48-.05a5.33,5.33,0,0,0-2.29-1.11c-.53.09-1.47,1.53-1.58,1.53Z"/><polygon class="cls-29" points="222.4 337.91 238.28 347.08 256.85 337.1 240.03 328.38 222.4 337.91"/><polygon class="cls-29" points="266.95 309.87 282.83 319.04 301.4 309.06 284.58 300.34 266.95 309.87"/><polygon class="cls-29" points="310.97 279.8 326.86 288.97 345.43 278.99 328.6 270.27 310.97 279.8"/><polygon class="cls-29" points="356.87 250.46 372.75 259.63 391.33 249.65 374.5 240.93 356.87 250.46"/><path class="cls-35" d="M372.73,240.84s.12,2.48.12,3.08-.78,1.61-2.7.89c-.91-.34-1.49-2-3.12-2.82-2-1-2.15-1.72-2-2.33s1.53-.85,2.52-.49c1.49.54,1.87,1.06,2.37,1.06S372.73,240.84,372.73,240.84Z"/><path class="cls-21" d="M365,239.66c.06-.3.33-.75,1.57-.75a5.8,5.8,0,0,1,2.14.79c-.69-.09-1.59.13-1.6.71l1.41,1.3a9.07,9.07,0,0,0,2.21,1.42,1.86,1.86,0,0,0,2.09-.34c0,.33,0,1,0,1.13,0,.73-.78,1.61-2.7.89-.91-.34-1.75-2.1-3.12-2.82C365.07,241,364.88,240.27,365,239.66Z"/><path class="cls-20" d="M372.85,241.31v-8.84l-5.09-1.82,2,9.83s.34,1.51,1.54,1.51S372.85,241.31,372.85,241.31Z"/><path class="cls-35" d="M363.65,244.12s.25,2.95.22,3.42c-.05.74-.79,1.41-2.27,1.2-1-.14-2.71-1.45-3.2-1.71s-3.38-1.75-3.46-2.48,1.09-1.44,2.16-1.27,3.49.95,3.9.73A9.84,9.84,0,0,1,363.65,244.12Z"/><path class="cls-21" d="M357.1,243.28l1.66.37c-1.05.09-1.16.88-1.05,1,.71,1,2.79,1.79,4.29,2.06a1.85,1.85,0,0,0,1.81-.5c0,.38.06,1.17.06,1.3-.05.74-.79,1.41-2.27,1.2-1-.14-2.71-1.45-3.2-1.71s-3.38-1.75-3.46-2.48S356,243.11,357.1,243.28Z"/><path class="cls-20" d="M364,225.87c.15,4.31.95,2.91.78,7.23-.06,1.56-.65,6.12-.86,11.46-.06,1.55-3.24.4-3.26-.67,0-2.51-.71-8.27-1.19-12.2-.18-1.49-1.26-6.44-.72-8C359.58,221.16,363.85,223,364,225.87Z"/><path class="cls-26" d="M372.13,240.38l-13.34-8.82a1.25,1.25,0,0,0-1.26-.12l-.72.42h0a1.22,1.22,0,0,0-.52,1.13l-.05,16.78a1.05,1.05,0,0,0,.48.83.33.33,0,0,0,.38,0l0,0,.72-.42a.34.34,0,0,0,.15-.31l0-16.78s0,0,0-.07l.07,0,13.32,8.8a1.55,1.55,0,0,1,.56.6,1.58,1.58,0,0,1,.24.79l-.05,15.66a1.08,1.08,0,0,0,.48.83.33.33,0,0,0,.38,0l0,0,.72-.42a.35.35,0,0,0,.14-.31l0-15.66A3.88,3.88,0,0,0,372.13,240.38Z"/><path class="cls-26" d="M390,230.79,376.64,222a1.26,1.26,0,0,0-1.26-.13l-.72.42h0a1.23,1.23,0,0,0-.52,1.14l0,16.77a1,1,0,0,0,.48.83.31.31,0,0,0,.38,0l0,0,.72-.42a.35.35,0,0,0,.14-.31l0-16.77s0-.06,0-.08l.05,0,13.34,8.81a1.62,1.62,0,0,1,.56.6,1.58,1.58,0,0,1,.24.79l0,15.66a1.06,1.06,0,0,0,.48.83c.16.09.29.09.38,0l0,0,.72-.42a.33.33,0,0,0,.14-.31l0-15.66A3.9,3.9,0,0,0,390,230.79Z"/><g class="cls-2"><polygon class="cls-32" points="356.69 231.65 373.59 221.83 373.59 221.84 356.69 231.66 356.69 231.65"/><path class="cls-32" d="M375.17,220.38l-.08,0a2.5,2.5,0,0,0-2.5-.23l-16.9,9.82a1.44,1.44,0,0,1,.77-.14,4.18,4.18,0,0,1,.79.11,7,7,0,0,1,.94.27l.08,0L373,239.78l15.87-10.49Z"/><path class="cls-20" d="M369.9,217.38c-.94-.22-3.24-.28-3.89.43a5.14,5.14,0,0,0-.87,3.06A14.86,14.86,0,0,0,361,221a2.88,2.88,0,0,0-2.33,2.68c-.18,1.65.05,3,3.58,4.63,4.44,2,11.58,6.37,12.22,6.48,7.65,1.32,13.6-6.89,4.89-15.41Z"/><path class="cls-45" d="M366.55,200.56c.33-.19.66,0,.74.4l2.11,10.15a1.07,1.07,0,0,1-.45,1.08l-12.25,7.08c-.33.19-.66,0-.73-.4l-2.12-10.15a1.07,1.07,0,0,1,.45-1.08Zm-9.92,17.72,12-6.95-2.05-9.78-12,6.95,2.05,9.78"/><polygon class="cls-9" points="354.58 208.5 356.63 218.28 368.67 211.33 366.62 201.55 354.58 208.5"/><polygon class="cls-32" points="354.58 208.5 354.85 209.77 366.9 202.88 366.62 201.55 354.58 208.5"/><path class="cls-13" d="M354.08,207.57l12.26-7.07a.44.44,0,0,1,.38-.06l.21.07a.48.48,0,0,0-.38.05l-12.25,7.08a1.07,1.07,0,0,0-.45,1.08L356,218.87a.53.53,0,0,0,.35.45l-.22-.06a.55.55,0,0,1-.35-.46l-2.12-10.15A1.07,1.07,0,0,1,354.08,207.57Z"/><path class="cls-13" d="M369.12,212.05a1,1,0,0,1,.87,0l8.19,4.53c.24.14.14.53-.1.67l-12.58,7.27a1,1,0,0,1-.86,0l-8.1-4.71c-.24-.14-.32-.54-.08-.68Zm-6.75,9.5a.59.59,0,0,0,.52,0L373,215.73a.16.16,0,0,0,0-.3l-3.66-2.13a.59.59,0,0,0-.52,0l-10.08,5.82c-.14.08-.15.22,0,.3l3.66,2.13m6.62,0a.59.59,0,0,0,.52,0l3.43-2a.16.16,0,0,0,0-.3l-2.28-1.33a.59.59,0,0,0-.52,0l-3.43,2c-.14.08-.14.21,0,.3l2.28,1.32"/><g class="cls-2"><path class="cls-46" d="M368.79,213.06a.59.59,0,0,1,.52,0l3.66,2.13a.16.16,0,0,1,0,.3l-10.08,5.82a.59.59,0,0,1-.52,0l-3.66-2.13c-.15-.08-.14-.22,0-.3Z"/><polygon class="cls-13" points="369.22 213.31 368.67 213.63 368.44 213.5 368.99 213.18 369.22 213.31"/><polygon class="cls-13" points="368.49 213.73 367.94 214.05 367.71 213.92 368.26 213.61 368.49 213.73"/><polygon class="cls-13" points="367.75 214.16 367.2 214.47 366.98 214.35 367.53 214.03 367.75 214.16"/><polygon class="cls-13" points="368.48 214.52 367.97 214.81 367.54 214.56 368.05 214.27 368.48 214.52"/><polygon class="cls-13" points="369.51 214.71 369 215 368.57 214.75 369.08 214.46 369.51 214.71"/><polygon class="cls-13" points="365.52 215.19 366.07 214.87 366.29 215 365.74 215.32 365.52 215.19"/><polygon class="cls-13" points="368.8 215.12 368.29 215.41 367.86 215.16 368.37 214.87 368.8 215.12"/><polygon class="cls-13" points="370 215.21 369.49 215.5 369.06 215.25 369.56 214.96 370 215.21"/><path class="cls-13" d="M371.65,215.32l.5-.29h0l.51.29-.5.29h0Z"/><polygon class="cls-13" points="365.56 215.42 365.01 215.74 364.78 215.61 365.33 215.29 365.56 215.42"/><polygon class="cls-13" points="366.36 215.74 365.85 216.04 365.42 215.79 365.93 215.5 366.36 215.74"/><polygon class="cls-13" points="370.34 215.79 369.83 216.09 369.4 215.84 369.9 215.54 370.34 215.79"/><polygon class="cls-13" points="367.38 215.94 366.87 216.23 366.44 215.98 366.95 215.69 367.38 215.94"/><path class="cls-13" d="M370.22,216.14l.5-.29h0l.51.3-.5.29h0Z"/><polygon class="cls-13" points="365.73 216.39 366.24 216.1 366.67 216.35 366.16 216.64 365.73 216.39"/><polygon class="cls-13" points="364.95 216.56 364.44 216.85 364.01 216.6 364.51 216.31 364.95 216.56"/><polygon class="cls-13" points="368.92 216.61 368.41 216.91 367.98 216.66 368.49 216.36 368.92 216.61"/><path class="cls-13" d="M369.37,216.64l.64-.37s0,0,0,0l.51.29-.64.37h0Z"/><polygon class="cls-13" points="362.59 216.88 363.14 216.56 363.37 216.69 362.82 217.01 362.59 216.88"/><polygon class="cls-13" points="365.96 216.76 365.45 217.05 365.02 216.8 365.53 216.51 365.96 216.76"/><polygon class="cls-13" points="363.3 217.01 363.81 216.72 364.24 216.97 363.73 217.26 363.3 217.01"/><polygon class="cls-13" points="364.31 217.21 364.82 216.92 365.25 217.16 364.74 217.46 364.31 217.21"/><polygon class="cls-13" points="362.59 217.42 363.1 217.13 363.54 217.38 363.03 217.67 362.59 217.42"/><polygon class="cls-13" points="367.5 217.43 366.99 217.72 366.56 217.48 367.06 217.18 367.5 217.43"/><polygon class="cls-13" points="361.13 217.72 361.68 217.41 361.91 217.53 361.36 217.85 361.13 217.72"/><polygon class="cls-13" points="364.54 217.57 364.04 217.87 363.6 217.62 364.11 217.33 364.54 217.57"/><polygon class="cls-13" points="361.89 217.83 362.39 217.53 362.83 217.78 362.32 218.07 361.89 217.83"/><polygon class="cls-13" points="366.79 217.84 366.28 218.13 365.85 217.89 366.35 217.59 366.79 217.84"/><polygon class="cls-13" points="361.18 217.96 360.62 218.27 360.4 218.15 360.95 217.83 361.18 217.96"/><polygon class="cls-13" points="362.89 218.03 363.4 217.74 363.83 217.99 363.32 218.28 362.89 218.03"/><polygon class="cls-13" points="365.04 218.07 364.53 218.36 364.1 218.11 364.61 217.82 365.04 218.07"/><polygon class="cls-13" points="361.18 218.24 361.69 217.94 362.12 218.19 361.62 218.48 361.18 218.24"/><polygon class="cls-13" points="366.08 218.25 365.57 218.54 365.14 218.3 365.64 218 366.08 218.25"/><polygon class="cls-13" points="360.44 218.38 359.89 218.69 359.67 218.57 360.22 218.25 360.44 218.38"/><polygon class="cls-13" points="363.12 218.4 362.62 218.69 362.18 218.44 362.69 218.15 363.12 218.4"/><polygon class="cls-13" points="363.39 218.52 363.9 218.23 364.33 218.48 363.83 218.77 363.39 218.52"/><polygon class="cls-13" points="360.47 218.64 360.98 218.35 361.42 218.6 360.91 218.89 360.47 218.64"/><polygon class="cls-13" points="365.37 218.66 364.86 218.96 364.43 218.71 364.93 218.41 365.37 218.66"/><polygon class="cls-13" points="361.47 218.85 361.98 218.56 362.41 218.8 361.9 219.1 361.47 218.85"/><polygon class="cls-13" points="364.66 219.07 364.15 219.37 363.72 219.12 364.22 218.82 364.66 219.07"/><polygon class="cls-13" points="364.87 219.16 364.9 219.21 364.9 219.21 364.87 219.16"/><path class="cls-13" d="M365,219.19l.64-.37h0l.51.3-.64.37h0Z"/><polygon class="cls-13" points="361.7 219.21 361.2 219.51 360.76 219.26 361.27 218.97 361.7 219.21"/><polygon class="cls-13" points="363.95 219.48 363.44 219.78 363.01 219.53 363.51 219.23 363.95 219.48"/><polygon class="cls-13" points="364.16 219.57 364.19 219.63 364.19 219.63 364.16 219.57"/><path class="cls-13" d="M364.24,219.6l.5-.29h0l.51.29-.5.29s0,0,0,0Z"/><polygon class="cls-13" points="362.21 219.7 361.7 220 361.27 219.75 361.78 219.46 362.21 219.7"/><polygon class="cls-13" points="360.08 219.64 360.56 219.36 361 219.61 360.83 219.7 361.51 220.1 361.19 220.29 360.08 219.64"/><polygon class="cls-13" points="363.85 220.19 364.35 219.9 364.55 220.01 364.05 220.31 363.85 220.19"/><polygon class="cls-13" points="363.24 219.89 361.86 220.69 361.43 220.44 362.8 219.64 363.24 219.89"/><polygon class="cls-13" points="363.33 220.72 363.13 220.6 363.64 220.31 363.84 220.43 363.33 220.72"/><polygon class="cls-13" points="369.89 213.7 369.38 214 368.95 213.75 369.46 213.46 369.89 213.7"/><polygon class="cls-13" points="368.25 214.16 368.75 213.86 369.19 214.11 368.68 214.41 368.25 214.16"/><polygon class="cls-13" points="366.25 214.77 366.8 214.45 367.02 214.58 366.47 214.9 366.25 214.77"/><polygon class="cls-13" points="371.24 214.49 370.2 215.09 369.76 214.84 370.81 214.24 371.24 214.49"/><polygon class="cls-13" points="366.83 214.97 367.34 214.68 367.77 214.93 367.27 215.22 366.83 214.97"/><polygon class="cls-13" points="371.92 214.88 370.54 215.68 370.11 215.43 371.48 214.63 371.92 214.88"/><polygon class="cls-13" points="368.09 215.53 367.58 215.82 367.15 215.57 367.66 215.28 368.09 215.53"/><path class="cls-13" d="M370.93,215.73l.51-.29h0l.51.3-.51.29h0Z"/><polygon class="cls-13" points="364.83 215.84 364.28 216.16 364.05 216.03 364.6 215.72 364.83 215.84"/><polygon class="cls-13" points="368.58 216.03 368.07 216.32 367.64 216.07 368.15 215.78 368.58 216.03"/><polygon class="cls-13" points="364.71 216.2 365.22 215.9 365.65 216.15 365.15 216.44 364.71 216.2"/><polygon class="cls-13" points="369.63 216.2 369.12 216.5 368.69 216.25 369.19 215.95 369.63 216.2"/><polygon class="cls-13" points="366.93 216.48 367.44 216.19 367.87 216.43 367.37 216.73 366.93 216.48"/><polygon class="cls-13" points="366.22 216.89 366.73 216.59 367.17 216.84 366.66 217.14 366.22 216.89"/><polygon class="cls-13" points="368.21 217.02 367.7 217.31 367.27 217.07 367.77 216.77 368.21 217.02"/><polygon class="cls-13" points="361.86 217.3 362.41 216.98 362.64 217.11 362.09 217.43 361.86 217.3"/><polygon class="cls-13" points="365.52 217.3 366.02 217 366.46 217.25 365.95 217.54 365.52 217.3"/><polygon class="cls-13" points="364.81 217.71 365.32 217.41 365.75 217.66 365.24 217.95 364.81 217.71"/><path class="cls-13" d="M365.8,218.69l3.35-1.93h0l.5.29L366.33,219h0Z"/><polygon class="cls-13" points="365.73 218.67 365.76 218.72 365.76 218.72 365.73 218.67"/><polygon class="cls-13" points="358.94 218.99 359.49 218.67 359.71 218.8 359.16 219.12 358.94 218.99"/><polygon class="cls-13" points="362.69 218.93 363.19 218.64 363.63 218.89 363.12 219.18 362.69 218.93"/><polygon class="cls-13" points="359.4 219.26 360.27 218.76 360.71 219.01 359.84 219.51 359.4 219.26"/><polygon class="cls-13" points="363.13 220.84 362.62 221.13 362.42 221.02 362.93 220.72 363.13 220.84"/><polygon class="cls-13" points="366.13 215.38 366.63 215.09 367.07 215.34 366.56 215.63 366.13 215.38"/><polygon class="cls-13" points="368.35 215.66 368.85 215.37 369.29 215.62 368.78 215.91 368.35 215.66"/><polygon class="cls-13" points="363.32 216.46 363.87 216.14 364.1 216.27 363.55 216.59 363.32 216.46"/><polygon class="cls-13" points="361.98 219.34 362.49 219.05 362.92 219.29 362.41 219.59 361.98 219.34"/><polygon class="cls-13" points="363.49 220.22 362.98 220.51 362.82 220.42 363.32 220.13 363.49 220.22"/><polygon class="cls-13" points="370.57 214.1 369.71 214.59 369.28 214.34 370.13 213.85 370.57 214.1"/><path class="cls-46" d="M366.71,219.67c-.14.08-.14.21,0,.3l2.28,1.32a.59.59,0,0,0,.52,0l3.43-2a.16.16,0,0,0,0-.3l-2.28-1.33a.59.59,0,0,0-.52,0Z"/><path class="cls-13" d="M369.12,211.81a1,1,0,0,1,.87,0l8.1,4.7a.27.27,0,0,1,0,.5l-12.58,7.27a.93.93,0,0,1-.86,0l-8.1-4.71a.26.26,0,0,1,0-.5Zm-6.75,9.5a.59.59,0,0,0,.52,0L373,215.49a.16.16,0,0,0,0-.3l-3.66-2.13a.59.59,0,0,0-.52,0l-10.08,5.82c-.14.08-.15.22,0,.3l3.66,2.13m6.62,0a.59.59,0,0,0,.52,0l3.43-2a.16.16,0,0,0,0-.3l-2.28-1.33a.59.59,0,0,0-.52,0l-3.43,2c-.14.08-.14.21,0,.3l2.28,1.32"/></g><polygon class="cls-4" points="362.42 207.32 363.07 210.4 366.86 208.21 366.21 205.13 362.42 207.32"/><polygon class="cls-4" points="356.6 210.74 356.7 211.21 361.17 208.65 361.06 208.16 356.6 210.74"/><polygon class="cls-4" points="356.87 211.91 356.97 212.38 361.43 209.83 361.33 209.34 356.87 211.91"/><polygon class="cls-4" points="357.12 213.09 357.22 213.56 361.68 211.01 361.58 210.52 357.12 213.09"/><polygon class="cls-4" points="357.4 214.27 357.5 214.74 361.96 212.19 361.86 211.69 357.4 214.27"/><polygon class="cls-4" points="357.65 215.45 357.75 215.92 362.22 213.37 362.11 212.87 357.65 215.45"/><path class="cls-35" d="M375.23,215c-.07-.66-2.35-1.79-2.35-1.79h0l-.1-.07-.2-.11-.23-.1a3.58,3.58,0,0,0-.49-.2,9.84,9.84,0,0,0-.94-.3l-.32-.08-.12,0a.26.26,0,0,0-.32.19.27.27,0,0,0,.19.33h0l.11,0,.29.08c.24.08.56.19.87.32a1.27,1.27,0,0,0-.18-.06,5.12,5.12,0,0,0-.56-.15c-.38-.09-.76-.15-1-.19l-.35-.05h-.13a.26.26,0,0,0-.3.23.28.28,0,0,0,.23.31h0l.13,0,.33,0c.23.05.54.11.85.19l-.19,0a7.51,7.51,0,0,0-1-.07H369a.27.27,0,0,0-.27.26.28.28,0,0,0,.27.28h.12l.31,0,.58.06h-.12l-.47,0h-.47a.28.28,0,0,0-.27.26.27.27,0,0,0,.26.28h.13l.32,0c.27,0,.62.05,1,.11l.49.1.2,0c.18.13.56.39,1,.65a.29.29,0,0,1-.22,0c-.31-.08-1.44-.25-1.15.41a11.59,11.59,0,0,0,2.2.48,3.52,3.52,0,0,0,1.28-.34A1.78,1.78,0,0,0,375.23,215Z"/><path class="cls-4" d="M391.12,202.51c-.1-.71,0-3.6-2.82-4.65,0,0-5.56-1.51-10.76,3.89-.81.84-1.62,3.56-2.14,6-.39,1.82-.35,2.31-.67,3.29-.38,1.2,1.76,4.16,1.76,4.16s-1.75,10.14-1.26,11.5c.72,2,4.75,5.42,12,1.14,4.48-2.65,3-8,3-8l-1-4.91S391.22,203.21,391.12,202.51Z"/><g class="cls-37"><path d="M384.42,227.1a14.15,14.15,0,0,0-.68-4.57c-.53-1.43-1.33-2.74-2-4.1a24.37,24.37,0,0,1-1.74-6.77c-.35-2-.85-4.17-2.94-5a1.77,1.77,0,0,1-1.1-1.29c-.22.77-.41,1.58-.58,2.36-.39,1.82-.35,2.31-.67,3.29-.38,1.2,1.76,4.16,1.76,4.16s-1.75,10.14-1.26,11.5c.62,1.7,3.74,4.52,9.28,2.45C384.46,228.46,384.44,227.79,384.42,227.1Z"/></g><path class="cls-35" d="M366.06,218.49c-.1-.4-1.11-1.44-1.13-1.61-.06-.48-.23-.45-.23-.45s-.2,0-.33.39a1.15,1.15,0,0,0,.16.8,3.91,3.91,0,0,0-.89-.27l-.21-.12L363,217c-.32-.13-.64-.24-.88-.31l-.29-.08-.12,0a.29.29,0,0,0-.35.2.3.3,0,0,0,.19.37h0l.1,0,.27.09c.23.08.52.2.8.33l.19.1-.05,0-.21-.09-.26-.1-.56-.17c-.37-.1-.75-.18-1-.23l-.35-.05-.13,0a.29.29,0,0,0-.1.58h0l.12,0,.33.07a7.24,7.24,0,0,1,1,.26,4.86,4.86,0,0,1,.5.17l.22.1h0l-.11.15h0l-.2-.1-.23-.08a3.51,3.51,0,0,0-.49-.15,8.39,8.39,0,0,0-.92-.17l-.31,0H360a.28.28,0,0,0-.32.25.3.3,0,0,0,.26.33h0l.1,0,.28,0a7.46,7.46,0,0,1,.85.21,3,3,0,0,1,.42.15l.19.08.15.08h0l0,.12-.18-.08-.23-.09-.23-.07a2.83,2.83,0,0,0-.47-.1,3.41,3.41,0,0,0-.42-.05h-.42a.3.3,0,0,0-.28.29.31.31,0,0,0,.3.3h.1l.25,0,.35.06a3.45,3.45,0,0,1,.4.11l.19.07.18.08.17.09.14.08a1.51,1.51,0,0,1,.21.14l.07.05,0,0h0l.14.05c1.33.72,2.76.78,3.29.37A2.21,2.21,0,0,0,366.06,218.49Z"/><path class="cls-4" d="M380.55,205.67s0,.41-.13,1.1-.23,1.68-.42,2.86c-.11.59-.22,1.23-.34,1.91s-.27,1.39-.42,2.12-.32,1.5-.51,2.27-.38,1.57-.61,2.37c-.12.4-.24.8-.38,1.21s-.27.82-.48,1.31l-.2.42a3.27,3.27,0,0,1-.39.63l-.09.11-.16.17-.18.16-.14.11h0l-.05,0-.21.12-.21.11-.12.05a3.48,3.48,0,0,1-.74.19,5.26,5.26,0,0,1-.93,0c-.26,0-.49,0-.71-.06a16.48,16.48,0,0,1-2.32-.45c-.7-.18-1.34-.38-1.92-.57-1.16-.39-2.11-.77-2.76-1.06l-.75-.35-.27-.14a1.19,1.19,0,0,1,.57-2.26H366l.8,0c.7,0,1.68.12,2.84.21l1.85.15c.64,0,1.32.09,1.93.08l.41,0a.57.57,0,0,0,.21,0,.39.39,0,0,0-.19,0l-.06,0a.61.61,0,0,0-.14.07l-.15.09h0l0,0h0l-.13.1-.13.1-.1.12-.05,0-.1.14,0-.12c.08-.23.17-.58.26-.92s.17-.71.25-1.07c.15-.74.32-1.49.47-2.24s.3-1.49.44-2.21l.41-2.08.38-1.86c.25-1.15.45-2.11.61-2.78l.25-1.05a2.27,2.27,0,0,1,4.46.74Z"/><path class="cls-35" d="M381.25,194.83l.54,4.17c.08,1.51,4.25.88,4.17-.63l-.8-3.76Z"/><path class="cls-47" d="M385.76,197.27c-.54,1.16-2.29,1.63-4.07.64l-.61,1.12a3.65,3.65,0,0,0,4.87.27,3.84,3.84,0,0,0,.45-1.63Z"/><path class="cls-35" d="M379.61,194.29c.54,2.47,1.57,3.26,3.77,3.28a6.58,6.58,0,0,0,3.15-3.54l.31-.81A2.38,2.38,0,0,0,385,190l-6.08-.87Z"/><path class="cls-21" d="M381.53,186.06c-1.41.6-3.59,1.08-3.16,4.05.07.43.52.31,1.14.75,0,0,.64.27.62,2s2.66,3.45,3.3,3.75a4.75,4.75,0,0,0,2.19-.09s3-4.8,2-7.86S382.82,185.52,381.53,186.06Z"/><path class="cls-35" d="M380,192.65l.44,1.65c.68.39.79-.8.59-1.79S380,192.65,380,192.65Z"/><path class="cls-21" d="M386.49,189.19s2-1,2.83.59c1.41,2.71-1,8.88-1,8.88a28.46,28.46,0,0,1-1.57-4.28C386.62,193.73,384.18,190.34,386.49,189.19Z"/><path class="cls-32" d="M396.46,206a1.47,1.47,0,0,0-.55-.62.56.56,0,0,0-.44-.08l-.22.1-16.9,9.82.22-.1a.56.56,0,0,1,.44.08,1.47,1.47,0,0,1,.55.62.91.91,0,0,1,0,1l-.24.13a2.36,2.36,0,0,0-.35.3,3.28,3.28,0,0,0-.76,1.72l-2.13,17.74-.14,1.21-.06.51a5.74,5.74,0,0,1-.32,1.38,2.54,2.54,0,0,1-.85,1.13l-.11.07,16.9-9.82.11-.07a2.54,2.54,0,0,0,.85-1.13,5.74,5.74,0,0,0,.32-1.38l2.33-19.46a3.28,3.28,0,0,1,.76-1.72l.24-.22.29-.17C396.66,206.92,396.69,206.47,396.46,206Z"/><path class="cls-13" d="M379.56,215.83c.24.49.19,1-.11,1.08l-.12.06a2.36,2.36,0,0,0-.35.3,3.28,3.28,0,0,0-.76,1.72l-2.33,19.46a5.74,5.74,0,0,1-.32,1.38,2.54,2.54,0,0,1-.85,1.13,1.74,1.74,0,0,1-1,.31,3.38,3.38,0,0,1-1.77-.54l-13.62-8.84-.4-.12a3.71,3.71,0,0,0-.91-.16.73.73,0,0,0-.37,0,.53.53,0,0,1-.51,0,1.51,1.51,0,0,1-.5-.53c-.27-.48-.27-1,0-1.15a1.44,1.44,0,0,1,.77-.14,4.18,4.18,0,0,1,.79.11,7,7,0,0,1,.94.27l.08,0s14.36,9.2,14.6,9.24a1.17,1.17,0,0,0,.63-.08,1.6,1.6,0,0,0,.78-1,3.72,3.72,0,0,0,.2-.91l2.34-19.54a4.21,4.21,0,0,1,1-2.25,2,2,0,0,1,.75-.54.56.56,0,0,1,.44.08A1.47,1.47,0,0,1,379.56,215.83Z"/></g><path class="cls-26" d="M326.24,269.73l-13.35-8.81a1.25,1.25,0,0,0-1.26-.13l-.72.42h0a1.23,1.23,0,0,0-.52,1.14l0,16.77a1.1,1.1,0,0,0,.48.84.33.33,0,0,0,.38,0l0,0,.72-.42a.35.35,0,0,0,.14-.31l0-16.77v-.08l.08,0,13.31,8.8a1.62,1.62,0,0,1,.56.6,1.58,1.58,0,0,1,.24.79l0,15.66a1.08,1.08,0,0,0,.49.84.31.31,0,0,0,.37,0l0,0,.72-.42a.33.33,0,0,0,.14-.31l.05-15.66A3.92,3.92,0,0,0,326.24,269.73Z"/><path class="cls-26" d="M344.06,260.15l-13.32-8.8a1.25,1.25,0,0,0-1.26-.12l-.72.42h0a1.25,1.25,0,0,0-.52,1.14l-.05,16.77a1.1,1.1,0,0,0,.48.84.33.33,0,0,0,.38,0l0,0,.72-.42a.35.35,0,0,0,.14-.31l.05-16.77v-.08l.05,0,13.34,8.81a1.75,1.75,0,0,1,.8,1.39l-.05,15.66a1.08,1.08,0,0,0,.49.84.3.3,0,0,0,.37,0l0,0,.72-.42a.32.32,0,0,0,.14-.31l.05-15.66A3.9,3.9,0,0,0,344.06,260.15Z"/><g class="cls-2"><polygon class="cls-32" points="310.8 261.01 327.69 251.19 327.69 251.19 310.79 261.01 310.8 261.01"/><path class="cls-32" d="M329.28,249.73l-.09,0a2.49,2.49,0,0,0-2.5-.24l-16.9,9.82a1.44,1.44,0,0,1,.77-.14,4.07,4.07,0,0,1,.79.11,7,7,0,0,1,.94.27l.09,0,14.76,9.58L343,258.64Z"/><path class="cls-20" d="M332.74,255.29c2.76,1.6,2.75,4.21,0,5.82a11.09,11.09,0,0,1-10.05,0c-2.76-1.61-2.75-4.22,0-5.82A11.06,11.06,0,0,1,332.74,255.29Zm-7.58,5.43,6.9-4-1.83-1.07-6.9,4,1.83,1.07"/><polygon class="cls-5" points="323.33 259.65 325.17 260.72 332.06 256.74 330.23 255.67 323.33 259.65"/><path class="cls-32" d="M350.56,235.37a1.44,1.44,0,0,0-.55-.63.56.56,0,0,0-.44-.08l-.22.11-16.9,9.82a.76.76,0,0,1,.22-.1.51.51,0,0,1,.44.07,1.44,1.44,0,0,1,.55.63.89.89,0,0,1,0,1l-.24.14a2.16,2.16,0,0,0-.35.29,3.29,3.29,0,0,0-.76,1.73l-2.13,17.74-.14,1.2-.06.51a4.77,4.77,0,0,1-.32,1.38,2.54,2.54,0,0,1-.85,1.13l-.11.07,16.9-9.82.11-.07a2.54,2.54,0,0,0,.85-1.13,4.85,4.85,0,0,0,.32-1.38l2.33-19.46a3.28,3.28,0,0,1,.76-1.72,2,2,0,0,1,.24-.21l.29-.17C350.76,236.27,350.79,235.82,350.56,235.37Z"/><path class="cls-13" d="M333.66,245.19c.24.49.2,1-.11,1.08l-.12.06a2.16,2.16,0,0,0-.35.29,3.29,3.29,0,0,0-.76,1.73L330,267.8a4.77,4.77,0,0,1-.32,1.38,2.54,2.54,0,0,1-.85,1.13,1.73,1.73,0,0,1-.95.31,3.39,3.39,0,0,1-1.78-.53l-13.62-8.85-.4-.12a4.25,4.25,0,0,0-.91-.16.73.73,0,0,0-.37.05.49.49,0,0,1-.5-.05,1.35,1.35,0,0,1-.5-.53c-.28-.47-.28-1,0-1.15a1.44,1.44,0,0,1,.77-.14,4.07,4.07,0,0,1,.79.11,7,7,0,0,1,.94.27l.09,0s14.35,9.2,14.59,9.24a1.17,1.17,0,0,0,.63-.08,1.61,1.61,0,0,0,.78-1,3.93,3.93,0,0,0,.2-.91l2.34-19.55a4.37,4.37,0,0,1,1-2.25,1.94,1.94,0,0,1,.75-.53.51.51,0,0,1,.44.07A1.44,1.44,0,0,1,333.66,245.19Z"/></g><path class="cls-26" d="M300,290.22l-13.31-8.8a1.25,1.25,0,0,0-1.26-.12l-.72.42h0a1.27,1.27,0,0,0-.52,1.14l0,16.77a1.07,1.07,0,0,0,.48.84.33.33,0,0,0,.38,0l0,0,.72-.42a.33.33,0,0,0,.14-.31l0-16.77s0-.05,0-.08l0,0,13.33,8.81a1.65,1.65,0,0,1,.57.6,1.59,1.59,0,0,1,.23.79l0,15.66a1.1,1.1,0,0,0,.48.84.33.33,0,0,0,.38,0l0,0,.72-.42a.35.35,0,0,0,.14-.31l0-15.66A3.87,3.87,0,0,0,300,290.22Z"/><path class="cls-33" d="M272.16,305a26,26,0,0,1-4.36.68c-1.34.06-2.76,1.43-1.39,2.09,1.75.86,7.58,1.84,7.58,1.84s1.82.41,2.62-.84a1.19,1.19,0,0,0,.17-.78l-.24-2.2Z"/><path class="cls-33" d="M277,299.81a35.73,35.73,0,0,1-4.12.48c-1.3.06-2.29,1.6-1.06,2l6.73,1.81s2.13.51,2.95-.77a.89.89,0,0,0,.1-.66l-.53-2.32Z"/><path class="cls-21" d="M275,291.79a36.54,36.54,0,0,0-3.92-6.83,34,34,0,0,0-4.57,2l5.39,18.27c.06.67.4,1.3,1.68,1.59a3.1,3.1,0,0,0,3-.65S276.28,294.62,275,291.79Z"/><path class="cls-21" d="M274.83,284.8,277,299.93a2,2,0,0,0,1.92,1.5c1.91.18,2.34-.88,2.34-.88l1.08-14.08C282.19,286.52,276.46,284.91,274.83,284.8Z"/><path class="cls-26" d="M282.2,299.8,268.86,291a1.26,1.26,0,0,0-1.26-.13l-.72.42h0a1.26,1.26,0,0,0-.52,1.14l0,16.77a1.07,1.07,0,0,0,.48.84.33.33,0,0,0,.38,0l0,0,.72-.42a.33.33,0,0,0,.14-.31l.05-16.77s0-.05,0-.08l.07,0,13.31,8.8a1.65,1.65,0,0,1,.57.6,1.56,1.56,0,0,1,.23.79l0,15.66a1.1,1.1,0,0,0,.48.84.33.33,0,0,0,.38,0l0,0,.72-.42a.35.35,0,0,0,.14-.31l0-15.66A3.92,3.92,0,0,0,282.2,299.8Z"/><g class="cls-2"><polygon class="cls-32" points="266.76 291.08 283.66 281.25 283.65 281.26 266.75 291.08 266.76 291.08"/><path class="cls-32" d="M285.24,279.8l-.08,0a2.5,2.5,0,0,0-2.51-.24l-16.9,9.82a1.45,1.45,0,0,1,.77-.14,4.17,4.17,0,0,1,.8.11,7,7,0,0,1,.94.27l.08,0,14.76,9.58L299,288.71Z"/><path class="cls-21" d="M280.65,294.84a3.39,3.39,0,0,0,3.58.53c2.93-.87,5.53-2.77,8.24-4.13,1-.49,1.92-1,2.91-1.47l-5.95-7.7c-1.11-.77-8.42-3.19-10.06-3.22-3-.06-3.92.53-4.31,1.37a5.14,5.14,0,0,0-.22,2.58,29.37,29.37,0,0,0-4-1.55c-3.76,0-4.37,2.51-4.37,2.51-.58,1.2.27,5,.27,5a7,7,0,0,1,5.41.38C274.72,291,279.52,294,280.65,294.84Z"/><path class="cls-6" d="M299,262.27c-.48-4.32-3.16-5.82-4.36-6.18-1.77-.54-3.31-.19-6.52.61-1.33.33-3.1,1.7-5.14,3.19-4.56,3.31-2.84,9.11-2.64,12.68a77.84,77.84,0,0,1-.89,14.82,3.75,3.75,0,0,0,3.73,3.07c4,.34,12.41-2.86,12.41-2.86s.15-6.08.89-8.28C298,274.81,299.27,265,299,262.27Z"/><path class="cls-48" d="M280.31,272.57a68.23,68.23,0,0,1-.27,9.79,20.33,20.33,0,0,0,4-9c.49-2.76.4-8-3.66-7.4a2,2,0,0,1-.49,0A52.35,52.35,0,0,0,280.31,272.57Z"/><path class="cls-49" d="M286.37,253.1l.26,4c0,1.48,5.08.81,5.05-.67l-.33-3.46Z"/><path class="cls-49" d="M285.19,252.52c.46,2.45,1.19,3,3.36,3.09,0,0,4.23-.28,4.31-2.53l.61-4.14-8.87-1.51Z"/><path class="cls-4" d="M287.3,244.47c-1.82.72-4.7,2.42-2.06,4.41,0,0,.56.54.49,2.29s1.74,3.33,3.07,4.46c1,.83,2.81-.11,2.81-.11a9.37,9.37,0,0,0,2.08-8.37C293,244,288.58,244,287.3,244.47Z"/><path class="cls-49" d="M285.56,251.3l.39,1.64c.66.39.56-.79.48-1.78C286.33,249.81,285.56,251.3,285.56,251.3Z"/><path class="cls-32" d="M306.53,265.44a1.51,1.51,0,0,0-.55-.63.59.59,0,0,0-.45-.08l-.21.11-16.9,9.82.21-.11a.59.59,0,0,1,.45.08,1.51,1.51,0,0,1,.55.63.91.91,0,0,1,0,1l-.24.14a1.8,1.8,0,0,0-.35.29,3.28,3.28,0,0,0-.77,1.73l-2.12,17.74-.15,1.2-.06.51a4.77,4.77,0,0,1-.32,1.38,2.45,2.45,0,0,1-.84,1.13l-.11.07,16.9-9.82.11-.07a2.45,2.45,0,0,0,.84-1.13,4.85,4.85,0,0,0,.32-1.38l2.33-19.46a3.28,3.28,0,0,1,.77-1.72,1.41,1.41,0,0,1,.23-.21l.3-.17C306.73,266.34,306.75,265.89,306.53,265.44Z"/><path class="cls-13" d="M289.63,275.26c.24.49.19,1-.11,1.08l-.12.06a1.8,1.8,0,0,0-.35.29,3.28,3.28,0,0,0-.77,1.73L286,297.87a4.77,4.77,0,0,1-.32,1.38,2.45,2.45,0,0,1-.84,1.13,1.77,1.77,0,0,1-1,.31,3.42,3.42,0,0,1-1.77-.53l-13.63-8.85-.39-.12a4.23,4.23,0,0,0-.92-.16.78.78,0,0,0-.37.05.51.51,0,0,1-.5-.05,1.43,1.43,0,0,1-.5-.53c-.27-.47-.27-1,0-1.15a1.45,1.45,0,0,1,.77-.14,4.17,4.17,0,0,1,.8.11,7,7,0,0,1,.94.27l.08,0s14.36,9.2,14.6,9.24a1.18,1.18,0,0,0,.63-.08,1.61,1.61,0,0,0,.78-1,3.9,3.9,0,0,0,.2-.92l2.34-19.54a4.29,4.29,0,0,1,1-2.25,2.12,2.12,0,0,1,.74-.54.59.59,0,0,1,.45.08A1.51,1.51,0,0,1,289.63,275.26Z"/></g><g class="cls-2"><polygon class="cls-38" points="277.23 267.93 277.1 268.04 273.65 262.67 273.78 262.56 277.23 267.93"/><polygon class="cls-39" points="273.78 262.56 273.65 262.67 267.97 265.82 268.1 265.71 273.78 262.56"/><polygon class="cls-40" points="271.55 271.08 271.42 271.19 267.97 265.82 268.1 265.71 271.55 271.08"/><polygon class="cls-41" points="277.23 267.93 277.1 268.04 271.42 271.19 271.55 271.08 277.23 267.93"/><g class="cls-2"><g class="cls-50"><g class="cls-2"><path class="cls-38" d="M267.32,266.18l-.13.11a.48.48,0,0,1,0-.63l.13-.11a.47.47,0,0,0,0,.63"/></g></g></g><path class="cls-21" d="M273.91,261.91a.54.54,0,0,1,.69.24l3.41,5.31a.47.47,0,0,1-.1.68l-6.49,3.59a.54.54,0,0,1-.69-.24l-3.41-5.31a.47.47,0,0,1,.1-.68Zm3.32,6-3.45-5.37-5.68,3.15,3.45,5.37,5.68-3.15"/><polygon class="cls-9" points="273.78 262.56 277.23 267.93 271.55 271.08 268.1 265.71 273.78 262.56"/><polygon class="cls-43" points="270.43 266.25 270.89 266.97 270.13 267.39 269.67 266.67 270.43 266.25"/><polygon class="cls-43" points="271.75 265.53 272.21 266.25 271.46 266.67 271 265.95 271.75 265.53"/><polygon class="cls-43" points="273.08 264.81 273.54 265.53 272.79 265.95 272.33 265.23 273.08 264.81"/><polygon class="cls-43" points="271.25 267.47 271.71 268.18 270.95 268.6 270.49 267.89 271.25 267.47"/><polygon class="cls-43" points="272.58 266.74 273.04 267.46 272.28 267.88 271.82 267.16 272.58 266.74"/><polygon class="cls-43" points="273.91 266.03 274.37 266.74 273.61 267.16 273.15 266.44 273.91 266.03"/><polygon class="cls-43" points="272.07 268.68 272.53 269.4 271.78 269.82 271.32 269.1 272.07 268.68"/><polygon class="cls-43" points="273.4 267.96 273.86 268.67 273.11 269.09 272.64 268.38 273.4 267.96"/><polygon class="cls-43" points="274.73 267.24 275.19 267.95 274.43 268.38 273.97 267.66 274.73 267.24"/><polygon class="cls-32" points="273.78 262.56 274.16 263.14 268.47 266.3 268.1 265.71 273.78 262.56"/><path class="cls-39" d="M277.91,268.14l-6.49,3.59-.13.11,6.49-3.59.06-.05.13-.11Z"/><polygon class="cls-38" points="270.73 271.5 270.6 271.61 267.19 266.29 267.32 266.18 270.73 271.5"/><g class="cls-2"><g class="cls-51"><g class="cls-2"><path class="cls-38" d="M271.42,271.73l-.13.11a.55.55,0,0,1-.69-.23l.13-.12a.54.54,0,0,0,.69.24"/></g></g></g></g><path class="cls-49" d="M268.92,272.72s-2.32-2.45-2.38-3a6.25,6.25,0,0,1,.93-3L269,269a.85.85,0,0,0,.2-1.1c-.52-1-.34-1.21,0-1.29a28.59,28.59,0,0,1,1.56,2.59,2.24,2.24,0,0,1-.09,2.15Z"/><path class="cls-6" d="M283.27,262.05c-2.6-.72-3.11,2.19-3.58,4-.75,2.82-1,5.24-2,8-2-1-4.82-2.18-6.75-3.25a1.89,1.89,0,0,0-2.08.33,1.48,1.48,0,0,0,0,2c.35.54,7.65,7,10.57,6s5-10.75,5.38-13c.28-1.58.44-3.49-1.53-4Z"/><path class="cls-26" d="M238.17,328.08l-13.35-8.81a1.24,1.24,0,0,0-1.25-.13l-.72.42h0a1.25,1.25,0,0,0-.52,1.14l-.05,16.77a1.08,1.08,0,0,0,.49.84.31.31,0,0,0,.37,0l0,0,.72-.42a.35.35,0,0,0,.14-.31l.05-16.77v-.08l.08,0,13.31,8.79a1.73,1.73,0,0,1,.57.6,1.67,1.67,0,0,1,.23.79l0,15.66a1,1,0,0,0,.48.84.31.31,0,0,0,.37,0l0,0,.72-.42a.33.33,0,0,0,.14-.31l.05-15.66A3.92,3.92,0,0,0,238.17,328.08Z"/><path class="cls-26" d="M256,318.5l-13.31-8.8a1.25,1.25,0,0,0-1.26-.12l-.72.42h0a1.25,1.25,0,0,0-.52,1.14l-.05,16.77a1.1,1.1,0,0,0,.48.84.31.31,0,0,0,.38,0l0,0,.72-.42a.32.32,0,0,0,.14-.31l.05-16.77v-.08l.06,0L255.26,320a1.62,1.62,0,0,1,.57.59,1.74,1.74,0,0,1,.23.79l0,15.66a1,1,0,0,0,.48.84.31.31,0,0,0,.38,0l0,0,.72-.42a.32.32,0,0,0,.14-.31l.05-15.66A3.9,3.9,0,0,0,256,318.5Z"/><g class="cls-2"><polygon class="cls-32" points="222.73 319.36 239.63 309.54 239.62 309.54 222.72 319.36 222.73 319.36"/><path class="cls-32" d="M241.21,308.08l-.09,0a2.48,2.48,0,0,0-2.5-.24l-16.9,9.82a1.45,1.45,0,0,1,.77-.14,4.28,4.28,0,0,1,.8.11,6.57,6.57,0,0,1,.93.27l.09,0,14.76,9.58L254.94,317Z"/><path class="cls-20" d="M243.37,313.64c2.77,1.61,2.75,4.22,0,5.82a11.06,11.06,0,0,1-10.05,0c-2.77-1.6-2.75-4.21,0-5.82A11.06,11.06,0,0,1,243.37,313.64Zm-7.57,5.44,6.89-4L240.86,314,234,318l1.83,1.07"/><polygon class="cls-5" points="233.97 318.01 235.8 319.08 242.69 315.1 240.86 314.03 233.97 318.01"/><path class="cls-32" d="M262.49,293.72a1.38,1.38,0,0,0-.55-.63.56.56,0,0,0-.44-.08,1.46,1.46,0,0,0-.21.11l-16.9,9.82a.65.65,0,0,1,.21-.1.51.51,0,0,1,.44.07,1.52,1.52,0,0,1,.56.63.91.91,0,0,1,0,1l-.23.14a1.6,1.6,0,0,0-.36.3,3.37,3.37,0,0,0-.76,1.72l-2.12,17.74-.15,1.21-.06.5a4.77,4.77,0,0,1-.32,1.38,2.54,2.54,0,0,1-.85,1.13.41.41,0,0,1-.11.07l16.9-9.82a.41.41,0,0,0,.11-.07,2.54,2.54,0,0,0,.85-1.13,4.85,4.85,0,0,0,.32-1.38l2.33-19.45a3.37,3.37,0,0,1,.76-1.73,2,2,0,0,1,.24-.21l.29-.17C262.69,294.62,262.72,294.17,262.49,293.72Z"/><path class="cls-13" d="M245.6,303.54c.24.49.19,1-.11,1.08a.45.45,0,0,0-.12.06,1.6,1.6,0,0,0-.36.3,3.37,3.37,0,0,0-.76,1.72l-2.33,19.45a4.77,4.77,0,0,1-.32,1.38,2.54,2.54,0,0,1-.85,1.13,1.73,1.73,0,0,1-.95.31,3.33,3.33,0,0,1-1.77-.53l-13.63-8.85-.4-.12a5,5,0,0,0-.91-.16.73.73,0,0,0-.37.05.49.49,0,0,1-.5-.05,1.43,1.43,0,0,1-.5-.53c-.28-.47-.28-1,0-1.15a1.45,1.45,0,0,1,.77-.14,4.28,4.28,0,0,1,.8.11,6.57,6.57,0,0,1,.93.27l.09,0s14.35,9.21,14.59,9.24a1.17,1.17,0,0,0,.63-.08,1.62,1.62,0,0,0,.79-1,3.89,3.89,0,0,0,.19-.91l2.34-19.55a4.37,4.37,0,0,1,1-2.24,1.91,1.91,0,0,1,.75-.54.51.51,0,0,1,.44.07A1.52,1.52,0,0,1,245.6,303.54Z"/></g><polygon class="cls-15" points="91.84 235.08 83.31 240.03 104.8 252.44 113.33 247.48 91.84 235.08"/><polygon class="cls-31" points="83.31 240.03 83.31 272 104.8 284.4 104.8 252.44 83.31 240.03"/><polygon class="cls-21" points="104.8 252.44 104.8 284.4 113.32 279.44 113.33 247.48 104.8 252.44"/><ellipse class="cls-17" cx="90.93" cy="239.25" rx="1.13" ry="1.38" transform="translate(-164.96 234.19) rotate(-68.06)"/><ellipse class="cls-19" cx="94.56" cy="241.49" rx="1.13" ry="1.38" transform="translate(-164.77 238.95) rotate(-68.06)"/><ellipse class="cls-19" cx="98.51" cy="243.51" rx="1.13" ry="1.38" transform="translate(-164.17 243.89) rotate(-68.06)"/><circle class="cls-18" cx="87.54" cy="248.73" r="0.82"/><circle class="cls-18" cx="90.17" cy="250.2" r="0.82"/><circle class="cls-18" cx="92.8" cy="251.75" r="0.82"/><circle class="cls-18" cx="95.43" cy="253.22" r="0.82"/><circle class="cls-18" cx="98.06" cy="254.78" r="0.82"/><circle class="cls-18" cx="100.69" cy="256.25" r="0.82"/><circle class="cls-18" cx="87.54" cy="252.64" r="0.82"/><circle class="cls-18" cx="90.17" cy="254.11" r="0.82"/><circle class="cls-18" cx="92.8" cy="255.67" r="0.82"/><circle class="cls-18" cx="95.43" cy="257.14" r="0.82"/><circle class="cls-18" cx="98.06" cy="258.69" r="0.82"/><circle class="cls-18" cx="100.69" cy="260.16" r="0.82"/><circle class="cls-18" cx="87.54" cy="256.6" r="0.82"/><circle class="cls-18" cx="90.17" cy="258.08" r="0.82"/><circle class="cls-18" cx="92.8" cy="259.63" r="0.82"/><circle class="cls-18" cx="95.43" cy="261.1" r="0.82"/><circle class="cls-18" cx="98.06" cy="262.65" r="0.82"/><circle class="cls-18" cx="100.69" cy="264.13" r="0.82"/><circle class="cls-18" cx="87.54" cy="260.52" r="0.82"/><circle class="cls-18" cx="90.17" cy="261.99" r="0.82"/><circle class="cls-18" cx="92.8" cy="263.55" r="0.82"/><circle class="cls-18" cx="95.43" cy="265.02" r="0.82"/><circle class="cls-18" cx="98.06" cy="266.57" r="0.82"/><circle class="cls-18" cx="100.69" cy="268.04" r="0.82"/><circle class="cls-18" cx="87.54" cy="264.28" r="0.82"/><circle class="cls-18" cx="90.17" cy="265.75" r="0.82"/><circle class="cls-18" cx="92.8" cy="267.31" r="0.82"/><circle class="cls-18" cx="95.43" cy="268.78" r="0.82"/><circle class="cls-18" cx="98.06" cy="270.33" r="0.82"/><circle class="cls-18" cx="100.69" cy="271.8" r="0.82"/><circle class="cls-18" cx="87.54" cy="268.2" r="0.82"/><circle class="cls-18" cx="90.17" cy="269.67" r="0.82"/><circle class="cls-18" cx="92.8" cy="271.22" r="0.82"/><circle class="cls-18" cx="95.43" cy="272.69" r="0.82"/><circle class="cls-18" cx="98.06" cy="274.25" r="0.82"/><circle class="cls-18" cx="100.69" cy="275.72" r="0.82"/><line class="cls-1" x1="83.31" y1="240.03" x2="104.8" y2="252.44"/><line class="cls-1" x1="83.31" y1="244.6" x2="104.8" y2="257"/><line class="cls-1" x1="83.31" y1="249.17" x2="104.8" y2="261.57"/><line class="cls-1" x1="83.31" y1="253.73" x2="104.8" y2="266.14"/><line class="cls-1" x1="83.31" y1="258.3" x2="104.8" y2="270.7"/><line class="cls-1" x1="83.31" y1="262.86" x2="104.8" y2="275.27"/><line class="cls-1" x1="83.31" y1="267.43" x2="104.8" y2="279.84"/><line class="cls-1" x1="83.31" y1="272" x2="104.79" y2="284.4"/><line class="cls-1" x1="83.31" y1="272" x2="83.31" y2="240.03"/><line class="cls-1" x1="86.38" y1="273.77" x2="86.38" y2="241.8"/><line class="cls-1" x1="89.45" y1="275.54" x2="89.45" y2="243.58"/><line class="cls-1" x1="92.52" y1="277.31" x2="92.52" y2="245.35"/><line class="cls-1" x1="95.59" y1="279.09" x2="95.59" y2="247.12"/><line class="cls-1" x1="98.66" y1="280.86" x2="98.66" y2="248.89"/><line class="cls-1" x1="101.73" y1="282.63" x2="101.73" y2="250.67"/><line class="cls-1" x1="104.79" y1="284.4" x2="104.8" y2="252.44"/><polygon class="cls-6" points="425.29 159.04 425.29 95.56 457.35 114.07 457.35 177.56 425.29 159.04"/><polygon class="cls-1" points="389.94 75.46 389.94 138.95 422 157.46 422 93.98 389.94 75.46"/><g class="cls-7"><polygon class="cls-8" points="425.3 129.86 425.3 96.06 457.36 114.57 457.36 148.38 425.3 129.86"/></g><path class="cls-4" d="M422,90.37v38.68l38.65,22.32V112.69Zm3.3,37.15V96.06l32.06,18.51V146Z"/><path class="cls-4" d="M422,90.55v38.68l38.65,22.32V112.86Zm3.3,37.15V96.24l32.06,18.51v31.46Z"/><polygon class="cls-52" points="430.21 130.35 425.58 127.68 448.19 109.43 452.82 112.1 430.21 130.35"/><polygon class="cls-52" points="434.15 132.74 432.61 131.82 455.22 113.57 456.76 114.49 434.15 132.74"/><polygon class="cls-52" points="394.93 109.82 390.31 107.15 413.03 88.77 417.65 91.44 394.93 109.82"/><polygon class="cls-52" points="398.77 112.25 397.23 111.33 420.05 92.91 421.6 93.83 398.77 112.25"/><polygon class="cls-52" points="393.73 130.36 389.11 127.69 396.99 121.31 401.65 123.95 393.73 130.36"/><polygon class="cls-52" points="397.78 132.31 396.24 131.38 403.94 125.17 405.35 126.19 397.78 132.31"/><path class="cls-4" d="M386.64,69.77v38.68l38.65,22.32V92.09Zm3.3,37.15V75.46L422,94v31.46Z"/><path class="cls-4" d="M386.64,78.12V116.8l38.65,22.32V100.43Zm3.3,37.15V83.81L422,102.32v31.46Z"/><path class="cls-5" d="M305.53,92.29a53.29,53.29,0,0,1,6.34-3,23.76,23.76,0,0,1,6.91-1.6,20.43,20.43,0,0,1,7.09.81,31.94,31.94,0,0,1,6.52,2.79c2.07,1.12,4,2.45,5.93,3.74s3.83,2.53,5.79,3.7a52.11,52.11,0,0,0,6.07,3,20.56,20.56,0,0,0,6.37,1.59,12.17,12.17,0,0,0,3.14-.28,10.92,10.92,0,0,0,2.89-1.18A13.14,13.14,0,0,0,367,97.36a12.08,12.08,0,0,0,1.61-6,9,9,0,0,0-1.81-5.73,7.32,7.32,0,0,0-5.17-2.84c-2-.3-4.15.16-5.22,1.73a7,7,0,0,0-1.21,2.74,5.8,5.8,0,0,0,.26,3,4.59,4.59,0,0,0,.68,1.3,2.94,2.94,0,0,0,1.11.84,5.16,5.16,0,0,0,3,.51h.06a.5.5,0,0,1,.59.39.49.49,0,0,1-.34.57,5.83,5.83,0,0,1-3.81-.22,4.42,4.42,0,0,1-1.72-1.1,6,6,0,0,1-1.05-1.68,7.47,7.47,0,0,1-.57-3.83,8.2,8.2,0,0,1,1.38-3.63A6.18,6.18,0,0,1,358,80.9a9.25,9.25,0,0,1,3.89-.37,9.67,9.67,0,0,1,6.71,3.59,10.11,10.11,0,0,1,1.83,3.44,13.19,13.19,0,0,1,.52,3.77,13.91,13.91,0,0,1-2,7.19,15.22,15.22,0,0,1-5.22,5.27,12.67,12.67,0,0,1-3.52,1.39,14,14,0,0,1-3.75.28,22.49,22.49,0,0,1-7-1.86,53,53,0,0,1-6.26-3.27c-2-1.24-3.95-2.51-5.84-3.87a67,67,0,0,0-5.72-3.76c-3.91-2.27-8.27-3.9-12.76-3.66S310.07,91.1,306,93.18a.5.5,0,0,1-.68-.22A.51.51,0,0,1,305.53,92.29Z"/><path class="cls-5" d="M310.07,97.05a14.25,14.25,0,0,1,6.25-2.31,26.32,26.32,0,0,1,3.31-.24c.55,0,1.09,0,1.64,0a13.75,13.75,0,0,1,1.71.17,16.81,16.81,0,0,1,6.32,2.44,10.81,10.81,0,0,1,2.62,2.36,10.53,10.53,0,0,1,1.62,3.14,11,11,0,0,1,.56,3.48,8,8,0,0,1-.78,3.57,6.34,6.34,0,0,1-2.62,2.73,6.94,6.94,0,0,1-3.65.83A8.29,8.29,0,0,1,320.7,110a5.48,5.48,0,0,1-.85-1.75,3.82,3.82,0,0,1-.15-1,6.15,6.15,0,0,1,.11-1,4,4,0,0,1,.82-1.75,6.28,6.28,0,0,1,1.31-1.19l0,0a.5.5,0,0,1,.65.76c-1.51,1.53-1.57,3.39-.36,4.72a7,7,0,0,0,4.87,2.34,5,5,0,0,0,2.58-.55,4.3,4.3,0,0,0,1.8-1.83,7.64,7.64,0,0,0,.15-5.54,8.29,8.29,0,0,0-3.38-4.59,15,15,0,0,0-5.59-2.34c-4-.52-8.53-.55-12.07,1.6a.5.5,0,0,1-.55-.84Z"/><path class="cls-5" d="M338.58,102.35c3.14,3.29,6.75,6.19,11,7.43a25.46,25.46,0,0,0,6.56,1.11,24.18,24.18,0,0,0,3.31,0,26.38,26.38,0,0,0,3.25-.58,31.77,31.77,0,0,0,6.28-2.2,6.37,6.37,0,0,0,1.29-.81,14.88,14.88,0,0,0,1.23-1,27,27,0,0,0,2.25-2.41,14.89,14.89,0,0,0,1.8-2.64,18.81,18.81,0,0,0,1.09-3,36.64,36.64,0,0,0,1.15-6.54h0a.51.51,0,0,1,.56-.46.5.5,0,0,1,.44.38,16.12,16.12,0,0,1-1.19,10.67,17.1,17.1,0,0,1-2.1,3,29.21,29.21,0,0,1-2.49,2.61,18.33,18.33,0,0,1-1.41,1.18,8.88,8.88,0,0,1-1.64,1,33.8,33.8,0,0,1-6.77,2.3,23.3,23.3,0,0,1-3.57.56,26.69,26.69,0,0,1-3.59-.06,27.38,27.38,0,0,1-7-1.41,20.66,20.66,0,0,1-6.25-3.45,32.9,32.9,0,0,1-5-4.95.5.5,0,0,1,.75-.66Z"/><polygon class="cls-20" points="330.28 84.6 330.61 85.7 331.52 85 331.13 86.08 332.29 86.05 331.33 86.7 332.29 87.36 331.13 87.32 331.52 88.41 330.61 87.71 330.28 88.81 329.96 87.71 329.04 88.41 329.43 87.32 328.28 87.36 329.23 86.7 328.28 86.05 329.43 86.08 329.04 85 329.96 85.7 330.28 84.6"/><polygon class="cls-20" points="355.04 96.17 355.36 97.28 356.28 96.57 355.89 97.66 357.04 97.63 356.09 98.28 357.04 98.93 355.89 98.9 356.28 99.98 355.36 99.28 355.04 100.38 354.71 99.28 353.8 99.98 354.19 98.9 353.03 98.93 353.98 98.28 353.03 97.63 354.19 97.66 353.8 96.57 354.71 97.28 355.04 96.17"/><polygon class="cls-20" points="376.34 111.47 376.66 112.57 377.57 111.87 377.19 112.95 378.34 112.92 377.39 113.57 378.34 114.22 377.19 114.19 377.57 115.28 376.66 114.57 376.34 115.68 376.01 114.57 375.1 115.28 375.48 114.19 374.33 114.22 375.28 113.57 374.33 112.92 375.48 112.95 375.1 111.87 376.01 112.57 376.34 111.47"/><path class="cls-3" d="M87.31,249a47.76,47.76,0,0,0-5.81-3.88,19.57,19.57,0,0,0-6.35-2.39,8.84,8.84,0,0,0-1.62-.08,15.53,15.53,0,0,0-1.67.2,14.5,14.5,0,0,0-3.22.94,30.82,30.82,0,0,0-5.92,3.48A26.6,26.6,0,0,1,56.49,251a10.25,10.25,0,0,1-3.8.62,7,7,0,0,1-3.88-1.08,4.49,4.49,0,0,1-1.44-1.68,5.35,5.35,0,0,1-.51-2.08A6.14,6.14,0,0,1,48,242.86a4.52,4.52,0,0,1,1.77-1.23,5.22,5.22,0,0,1,2-.44,3.11,3.11,0,0,1,1.11.18,4.51,4.51,0,0,1,.93.47,3.54,3.54,0,0,1,1.33,1.58.52.52,0,0,1-.27.66.51.51,0,0,1-.61-.18l0,0a2.78,2.78,0,0,0-1.08-.93,2.82,2.82,0,0,0-.69-.24,2.24,2.24,0,0,0-.64,0,3.8,3.8,0,0,0-1.39.43,3,3,0,0,0-1.05.84,4.63,4.63,0,0,0-.66,2.76A2.91,2.91,0,0,0,49.9,249a5.2,5.2,0,0,0,2.84.77,8.43,8.43,0,0,0,3.14-.49,24.8,24.8,0,0,0,5.82-3.5,32.7,32.7,0,0,1,6.35-3.52,16.81,16.81,0,0,1,3.57-1,16.32,16.32,0,0,1,1.84-.16,8.69,8.69,0,0,1,1.91.13A20.8,20.8,0,0,1,82.11,244a49.07,49.07,0,0,1,5.82,4.15.52.52,0,0,1,.07.71A.5.5,0,0,1,87.31,249Z"/><path class="cls-3" d="M92.62,258.29A29.91,29.91,0,0,0,84.93,252,28,28,0,0,0,80.45,250a17.7,17.7,0,0,0-4.78-.94c-3.25-.16-6.65.21-9.37,1.87A17,17,0,0,0,62.63,254a42.18,42.18,0,0,0-3,3.92c-1,1.37-1.88,2.78-2.82,4.18a27.17,27.17,0,0,1-3.3,4,21.67,21.67,0,0,1-2,1.75,13.63,13.63,0,0,1-2.25,1.54,10.48,10.48,0,0,1-5.42.91,7.15,7.15,0,0,1-1.41-.27,6.31,6.31,0,0,1-1.34-.59,7,7,0,0,1-2.18-1.89,6,6,0,0,1-1.11-2.71,6.3,6.3,0,0,1-.07-1.44A5.14,5.14,0,0,1,38,262a5,5,0,0,1,1.9-2.33,4.73,4.73,0,0,1,1.37-.62,5.5,5.5,0,0,1,1.45-.15,4.5,4.5,0,0,1,2.78.85,6.18,6.18,0,0,1,1,1,2.48,2.48,0,0,1,.7,1.44.5.5,0,0,1-.45.54.48.48,0,0,1-.53-.38l0-.09a1.85,1.85,0,0,0-.54-.72,5.4,5.4,0,0,0-.9-.67,3.14,3.14,0,0,0-2-.44,4.7,4.7,0,0,0-1.05.17,3.75,3.75,0,0,0-.91.47,3.24,3.24,0,0,0-1.2,1.57,4.55,4.55,0,0,0-.1,2.06,4.17,4.17,0,0,0,.8,1.92A5.15,5.15,0,0,0,42,267.92a4.45,4.45,0,0,0,1,.42,5.8,5.8,0,0,0,1.07.2,9.23,9.23,0,0,0,4.45-.74,13.08,13.08,0,0,0,1.93-1.3,23.28,23.28,0,0,0,1.83-1.6,25.81,25.81,0,0,0,3.13-3.76c1-1.38,1.91-2.78,2.91-4.16a42,42,0,0,1,3.21-4,18.84,18.84,0,0,1,4.07-3.35,14.35,14.35,0,0,1,5-1.72,22.64,22.64,0,0,1,5.2-.2,18.65,18.65,0,0,1,5.11,1.09A28.46,28.46,0,0,1,85.52,251a30.92,30.92,0,0,1,7.83,6.6.5.5,0,0,1,0,.71.5.5,0,0,1-.7,0Z"/><path class="cls-3" d="M92.22,264.17a24.24,24.24,0,0,0-4.2-4.74,15.32,15.32,0,0,0-2.59-1.72c-.92-.5-1.9-1-2.86-1.4a15.44,15.44,0,0,0-6-1.42A9,9,0,0,0,71,256.27a7.51,7.51,0,0,0-1.93,2.08,7.78,7.78,0,0,0-1,2.68,5.51,5.51,0,0,0,.12,2.67,2.19,2.19,0,0,0,.23.46,4.22,4.22,0,0,0,.42.51,3.87,3.87,0,0,0,1,.77,4.54,4.54,0,0,0,2.57.38,3.84,3.84,0,0,0,2.33-1,4,4,0,0,0,1.07-2.4c0-.24,0-.48,0-.75v-.41c0-.1,0-.21,0-.32a5,5,0,0,0-.39-1.37v0a.5.5,0,0,1,.86-.5,5.06,5.06,0,0,1,.78,1.66,3.41,3.41,0,0,1,.09.48l0,.41a7.77,7.77,0,0,1,.08.88,5.57,5.57,0,0,1-.27,1.85,4.78,4.78,0,0,1-1,1.72,5.47,5.47,0,0,1-3.39,1.79,6.29,6.29,0,0,1-3.79-.48,5.54,5.54,0,0,1-1.6-1.18,7,7,0,0,1-.62-.73,4.19,4.19,0,0,1-.5-1,7.61,7.61,0,0,1-.18-3.77,9.86,9.86,0,0,1,1.3-3.4,9.55,9.55,0,0,1,2.51-2.64,9,9,0,0,1,3.35-1.43,13.29,13.29,0,0,1,3.49-.22,17.23,17.23,0,0,1,6.59,1.79c1,.49,2,1,2.94,1.57a16,16,0,0,1,2.73,2,23,23,0,0,1,4.11,5.26.48.48,0,0,1-.17.68A.49.49,0,0,1,92.22,264.17Z"/></g><g id="red_boxes_3" data-name="red boxes 3"><path class="cls-53" d="M31.72,271.39V186.17a3.09,3.09,0,0,1,4.63-2.68l84.1,48.56a6.15,6.15,0,0,1,3.09,5.35v85.22a3.09,3.09,0,0,1-4.63,2.68l-84.1-48.56A6.17,6.17,0,0,1,31.72,271.39Z"/></g></g></svg>